<svg width="91" height="46" viewBox="0 0 91 46" fill="none" xmlns="http://www.w3.org/2000/svg">
<path d="M53.4217 25.2902C53.4217 26.0295 53.2729 26.6822 52.9755 27.2481C52.678 27.8142 52.278 28.2804 51.7749 28.6466C51.18 29.0864 50.5426 29.3977 49.8628 29.5808C49.1829 29.764 48.3045 29.8555 47.2278 29.8555H42.6914V14.9951H46.8849C48.0101 14.9951 48.8543 15.03 49.4169 15.0999C49.9795 15.1698 50.5192 15.334 51.0359 15.5933C51.6021 15.8792 52.0162 16.2529 52.2782 16.715C52.54 17.1769 52.671 17.7201 52.671 18.3449C52.671 19.0427 52.4748 19.6675 52.0825 20.219C51.69 20.7708 51.1474 21.2025 50.4548 21.514V21.5939C51.3977 21.8336 52.1277 22.2717 52.6454 22.9077C53.1631 23.5437 53.4217 24.3379 53.4217 25.2902ZM50.481 18.6254C50.481 18.2671 50.4175 17.9564 50.2905 17.694C50.1633 17.4318 49.9586 17.224 49.6761 17.0712C49.3368 16.892 48.959 16.7826 48.5425 16.7426C48.1258 16.7028 47.5501 16.6827 46.8157 16.6827H44.8031V21.0267H47.1865C47.8432 21.0267 48.3269 20.9952 48.6378 20.9322C48.9484 20.8692 49.2699 20.7378 49.602 20.5384C49.9197 20.346 50.1456 20.0935 50.2797 19.7813C50.4138 19.4692 50.481 19.084 50.481 18.6254ZM51.2319 25.3676C51.2319 24.8077 51.1468 24.346 50.9772 23.9827C50.8076 23.6195 50.4644 23.3108 49.9482 23.0574C49.6159 22.8909 49.2533 22.7842 48.8609 22.7376C48.4685 22.6909 47.9114 22.6674 47.1899 22.6674H44.8029V28.1677H46.5109C47.4304 28.1677 48.1553 28.128 48.6856 28.0479C49.2159 27.9677 49.6828 27.7978 50.086 27.5378C50.4819 27.2778 50.772 26.9829 50.9558 26.6528C51.1396 26.3226 51.2319 25.8945 51.2319 25.3676Z" fill="#E1DBD4"/>
<path d="M55.5195 29.8553V14.9951H65.4208V16.7452H57.6312V20.8236H64.889V22.5737H57.6312V28.1052H65.4208V29.8553H55.5195Z" fill="#E1DBD4"/>
<path d="M72.1441 30.121C70.9968 30.121 70.0212 30.0096 69.2173 29.7875C68.4134 29.5651 67.6575 29.2911 66.9492 28.9657V26.4958H67.0979C67.7917 27.1067 68.5777 27.5796 69.4559 27.9149C70.3341 28.2504 71.1801 28.4178 71.9945 28.4178C73.1559 28.4178 74.0338 28.19 74.6287 27.7341C75.2236 27.2785 75.5211 26.6779 75.5211 25.9327C75.5211 25.3407 75.3652 24.8582 75.0533 24.4857C74.7415 24.1131 74.2453 23.837 73.5648 23.6572C73.0758 23.5244 72.6292 23.4146 72.2253 23.3281C71.8213 23.2416 71.3147 23.1252 70.7051 22.9787C70.1594 22.8458 69.6703 22.6762 69.2379 22.4702C68.8056 22.2642 68.4228 21.9945 68.0899 21.662C67.764 21.3364 67.5104 20.9522 67.3299 20.5101C67.1491 20.0679 67.0588 19.5574 67.0588 18.9787C67.0588 17.775 67.5586 16.766 68.5587 15.9514C69.5585 15.1369 70.835 14.7295 72.3883 14.7295C73.2748 14.7295 74.1133 14.813 74.9042 14.9795C75.6948 15.146 76.4271 15.3827 77.1009 15.689V18.0578H76.9414C76.4377 17.6232 75.7921 17.2435 75.0049 16.9194C74.2174 16.5951 73.3912 16.4327 72.5256 16.4327C71.5468 16.4327 70.7558 16.6473 70.1529 17.0765C69.55 17.5056 69.2486 18.0694 69.2486 18.768C69.2486 19.4004 69.4258 19.9025 69.7801 20.2752C70.1345 20.6478 70.6483 20.9207 71.3216 21.0936C71.7678 21.2069 72.3136 21.3349 72.9586 21.4779C73.6035 21.6209 74.1388 21.752 74.564 21.8716C75.6553 22.1842 76.4526 22.6563 76.9557 23.2882C77.4589 23.9201 77.7107 24.6979 77.7107 25.6221C77.7107 26.2008 77.5848 26.7728 77.3335 27.3381C77.082 27.9032 76.7296 28.3821 76.2765 28.7744C75.7665 29.2066 75.1908 29.5391 74.55 29.7718C73.9092 30.0046 73.1073 30.121 72.1441 30.121Z" fill="#E1DBD4"/>
<path d="M83.5487 29.8553V16.7452H78.2305V14.9951H90.9786V16.7452H85.6603V29.8553H83.5487Z" fill="#E1DBD4"/>
<path d="M45.0219 34.3102C45.0219 34.4805 44.9897 34.6309 44.9252 34.7614C44.8608 34.8919 44.7739 34.9993 44.6649 35.0837C44.5359 35.1851 44.3976 35.2568 44.2502 35.2991C44.1028 35.3413 43.9124 35.3625 43.679 35.3625H42.6953V31.9365H43.6057C43.8499 31.9365 44.0331 31.9445 44.1554 31.9606C44.2775 31.9768 44.3946 32.0148 44.5069 32.0744C44.6298 32.1403 44.7197 32.2265 44.7766 32.3329C44.8334 32.4396 44.8619 32.5647 44.8619 32.7088C44.8619 32.8697 44.8192 33.0137 44.7341 33.141C44.6489 33.2682 44.531 33.3677 44.3806 33.4397V33.4581C44.5845 33.5134 44.7425 33.6144 44.8544 33.7609C44.966 33.9076 45.0219 34.0906 45.0219 34.3102ZM44.3885 32.7764C44.3885 32.6943 44.3746 32.6231 44.347 32.5629C44.3193 32.5028 44.2746 32.4552 44.2132 32.4201C44.1394 32.3789 44.0572 32.3538 43.9666 32.3447C43.8758 32.3354 43.7506 32.3309 43.5908 32.3309H43.1528V33.3271H43.6716C43.8145 33.3271 43.9198 33.3199 43.9875 33.3055C44.055 33.291 44.125 33.2608 44.1972 33.2151C44.2664 33.1708 44.3156 33.1131 44.3447 33.0415C44.3739 32.9698 44.3885 32.8817 44.3885 32.7764ZM44.5488 34.3255C44.5488 34.1972 44.5304 34.0913 44.4935 34.0078C44.4566 33.9245 44.3821 33.8538 44.27 33.7956C44.1978 33.7574 44.1191 33.7329 44.0339 33.7221C43.9487 33.7115 43.8278 33.7061 43.6711 33.7061H43.1528V34.9679H43.5237C43.7234 34.9679 43.8808 34.9588 43.996 34.9404C44.1111 34.9221 44.2124 34.8831 44.3 34.8233C44.386 34.7636 44.449 34.6959 44.4889 34.6203C44.5288 34.5447 44.5488 34.4464 44.5488 34.3255Z" fill="#E1DBD4"/>
<path d="M47.5728 34.0784C47.5728 34.5108 47.4685 34.8445 47.26 35.0799C47.0514 35.3153 46.7738 35.4328 46.4273 35.4328C46.0701 35.4328 45.789 35.3113 45.5844 35.0684C45.3798 34.8255 45.2773 34.4954 45.2773 34.0784C45.2773 33.6491 45.3827 33.3158 45.5936 33.0782C45.8043 32.8406 46.0823 32.7217 46.4273 32.7217C46.774 32.7217 47.0514 32.8402 47.26 33.0771C47.4685 33.314 47.5728 33.6477 47.5728 34.0784ZM47.1271 34.0784C47.1271 33.748 47.0665 33.5025 46.9453 33.3417C46.824 33.181 46.6514 33.1006 46.4273 33.1006C46.2017 33.1006 46.028 33.1811 45.906 33.3417C45.784 33.5023 45.7232 33.748 45.7232 34.0784C45.7232 34.3983 45.784 34.6408 45.906 34.8059C46.028 34.9712 46.2017 35.0538 46.4273 35.0538C46.6497 35.0538 46.822 34.9728 46.944 34.8105C47.0659 34.6485 47.1271 34.4044 47.1271 34.0784Z" fill="#E1DBD4"/>
<path d="M49.4547 35.0877C49.4194 35.1139 49.3722 35.1504 49.3132 35.1971C49.2541 35.2439 49.1971 35.2811 49.1419 35.3088C49.0652 35.3485 48.9911 35.3791 48.9199 35.4008C48.8486 35.4221 48.7484 35.4329 48.6197 35.4329C48.5138 35.4329 48.4135 35.413 48.3184 35.3731C48.2233 35.3333 48.1397 35.2771 48.0676 35.2051C47.9985 35.1346 47.9433 35.0476 47.9019 34.9441C47.8605 34.8406 47.8398 34.7312 47.8398 34.6162C47.8398 34.4385 47.8775 34.2871 47.9525 34.1621C48.0278 34.0371 48.1465 33.9377 48.3091 33.8642C48.4533 33.7983 48.6236 33.7525 48.8199 33.7272C49.0161 33.702 49.2278 33.6832 49.4548 33.6709V33.5875C49.4548 33.4858 49.4394 33.4035 49.4089 33.341C49.3783 33.2785 49.3353 33.2303 49.2803 33.1964C49.2252 33.1609 49.1578 33.1373 49.0781 33.1259C48.9983 33.1141 48.9165 33.1084 48.8322 33.1084C48.7327 33.1084 48.6156 33.1238 48.4807 33.1545C48.3458 33.1853 48.2111 33.2299 48.0763 33.288H48.0511V32.8472C48.1309 32.824 48.2453 32.7986 48.3942 32.7711C48.5431 32.7432 48.6905 32.7295 48.8364 32.7295C49.013 32.7295 49.1619 32.7432 49.2831 32.7709C49.4044 32.7985 49.5135 32.8484 49.6102 32.9205C49.7038 32.991 49.7738 33.0824 49.8197 33.1944C49.8659 33.3064 49.8889 33.4429 49.8889 33.6039V35.3623H49.4548L49.4547 35.0877ZM49.4547 34.7289V34.0226C49.3518 34.0317 49.2218 34.0443 49.0647 34.0603C48.9072 34.0763 48.7805 34.0987 48.6836 34.1277C48.5685 34.1626 48.4734 34.2163 48.3983 34.2886C48.3231 34.361 48.2856 34.462 48.2856 34.5913C48.2856 34.7375 48.327 34.848 48.4098 34.9224C48.4927 34.9971 48.6139 35.0344 48.7735 35.0344C48.91 35.0344 49.0335 35.005 49.144 34.946C49.2545 34.887 49.3581 34.8147 49.4547 34.7289Z" fill="#E1DBD4"/>
<path d="M51.8608 33.2609H51.8377C51.8054 33.2523 51.7712 33.2469 51.7353 33.2446C51.6991 33.2424 51.6557 33.2414 51.605 33.2414C51.4884 33.2414 51.3724 33.2666 51.2573 33.3171C51.142 33.3676 51.0331 33.4427 50.9302 33.542V35.3625H50.4961V32.792H50.9302V33.174C51.0884 33.0344 51.2261 32.9359 51.3436 32.8784C51.4611 32.8209 51.5754 32.7921 51.6858 32.7921C51.7302 32.7921 51.7637 32.7932 51.786 32.7956C51.8083 32.7979 51.8332 32.8014 51.8609 32.806V33.2609H51.8608Z" fill="#E1DBD4"/>
<path d="M54.1585 35.3623H53.7245V35.0991C53.6568 35.1559 53.5982 35.2026 53.5491 35.2394C53.4997 35.2763 53.4421 35.3099 53.3761 35.3408C53.3145 35.3698 53.2506 35.3924 53.1845 35.4086C53.1183 35.4246 53.0413 35.4326 52.9537 35.4326C52.8137 35.4326 52.6842 35.4035 52.565 35.3454C52.4457 35.287 52.3445 35.2021 52.2614 35.09C52.1768 34.9767 52.1115 34.8369 52.0654 34.6705C52.0192 34.5041 51.9961 34.313 51.9961 34.0967C51.9961 33.8713 52.0252 33.6764 52.0837 33.5115C52.1421 33.3466 52.223 33.2029 52.3262 33.0804C52.4201 32.9684 52.5334 32.8806 52.6664 32.8171C52.7996 32.7535 52.9392 32.7216 53.0854 32.7216C53.2147 32.7216 53.3269 32.7359 53.4223 32.7642C53.5176 32.7926 53.6183 32.8366 53.7246 32.8965V31.7842H54.1587L54.1585 35.3623ZM53.7246 34.7356V33.255C53.6167 33.204 53.52 33.1688 53.4346 33.1491C53.3491 33.1296 53.2562 33.1199 53.156 33.1199C52.9326 33.1199 52.7578 33.203 52.6315 33.3691C52.5053 33.5353 52.4419 33.7755 52.4419 34.0896C52.4419 34.3913 52.4905 34.6223 52.5875 34.7822C52.6845 34.9424 52.8403 35.0224 53.0542 35.0224C53.1684 35.0224 53.283 34.9966 53.3986 34.9449C53.5142 34.8934 53.6228 34.8235 53.7246 34.7356Z" fill="#E1DBD4"/>
<path d="M58.3735 34.0784C58.3735 34.5108 58.2692 34.8445 58.0606 35.0799C57.852 35.3153 57.5746 35.4328 57.2281 35.4328C56.8709 35.4328 56.5897 35.3113 56.3852 35.0684C56.1804 34.8255 56.0781 34.4954 56.0781 34.0784C56.0781 33.6491 56.1836 33.3158 56.3943 33.0782C56.6051 32.8406 56.883 32.7217 57.2281 32.7217C57.5747 32.7217 57.852 32.8402 58.0606 33.0771C58.2692 33.314 58.3735 33.6477 58.3735 34.0784ZM57.9277 34.0784C57.9277 33.748 57.8672 33.5025 57.7459 33.3417C57.6247 33.181 57.4521 33.1006 57.2281 33.1006C57.0025 33.1006 56.8288 33.1811 56.7068 33.3417C56.5848 33.5023 56.5239 33.748 56.5239 34.0784C56.5239 34.3983 56.5848 34.6408 56.7068 34.8059C56.8288 34.9712 57.0025 35.0538 57.2281 35.0538C57.4505 35.0538 57.6228 34.9728 57.7448 34.8105C57.8667 34.6485 57.9277 34.4044 57.9277 34.0784Z" fill="#E1DBD4"/>
<path d="M60.1698 32.1984H60.1468C60.1083 32.1849 60.0533 32.1718 59.9812 32.159C59.9091 32.1463 59.8447 32.1399 59.788 32.1399C59.6055 32.1399 59.4755 32.1808 59.3982 32.2623C59.3209 32.344 59.2821 32.4915 59.2821 32.7052V32.7922H59.9977V33.1554H59.2977V35.3626H58.8636V33.1554H58.5703V32.7922H58.8636V32.7072C58.8636 32.3978 58.938 32.1629 59.0866 32.0019C59.2353 31.8412 59.4484 31.7607 59.7259 31.7607C59.8056 31.7607 59.8838 31.765 59.9603 31.7735C60.037 31.7819 60.1067 31.7915 60.1697 31.8021L60.1698 32.1984Z" fill="#E1DBD4"/>
<path d="M61.8281 35.3625V31.9365H63.9749V32.3428H62.2856V33.2803H63.8616V33.6866H62.2856V34.9562H63.9749V35.3625H61.8281Z" fill="#E1DBD4"/>
<path d="M66.4395 35.3623H66.0054V35.076C65.872 35.1928 65.7454 35.2813 65.6258 35.3418C65.5061 35.4021 65.3727 35.4326 65.2255 35.4326C65.1133 35.4326 65.0081 35.4143 64.9091 35.3775C64.8101 35.3408 64.7239 35.2824 64.6503 35.2026C64.5766 35.123 64.5196 35.0226 64.4789 34.9014C64.4382 34.7802 64.418 34.6331 64.418 34.4597V32.792H64.8521V34.2561C64.8521 34.3927 64.8569 34.5058 64.8669 34.5956C64.877 34.6854 64.8995 34.7641 64.9348 34.8316C64.9699 34.8975 65.0179 34.9459 65.0783 34.9766C65.1387 35.0074 65.2257 35.0226 65.3391 35.0226C65.4449 35.0226 65.5573 34.9926 65.6768 34.9324C65.7963 34.8724 65.9059 34.7984 66.0055 34.7105V32.792H66.4396L66.4395 35.3623Z" fill="#E1DBD4"/>
<path d="M68.435 33.2609H68.4119C68.3796 33.2523 68.3454 33.2469 68.3095 33.2446C68.2734 33.2424 68.2299 33.2414 68.1793 33.2414C68.0626 33.2414 67.9466 33.2666 67.8315 33.3171C67.7163 33.3676 67.6073 33.4427 67.5044 33.542V35.3625H67.0703V32.792H67.5044V33.174C67.6626 33.0344 67.8003 32.9359 67.9178 32.8784C68.0353 32.8209 68.1496 32.7921 68.26 32.7921C68.3044 32.7921 68.3379 32.7932 68.3602 32.7956C68.3825 32.7979 68.4074 32.8014 68.4352 32.806V33.2609H68.435Z" fill="#E1DBD4"/>
<path d="M70.8657 34.0784C70.8657 34.5108 70.7614 34.8445 70.5528 35.0799C70.3442 35.3153 70.0668 35.4328 69.7203 35.4328C69.363 35.4328 69.0819 35.3113 68.8774 35.0684C68.6725 34.8255 68.5703 34.4954 68.5703 34.0784C68.5703 33.6491 68.6758 33.3158 68.8865 33.0782C69.0973 32.8406 69.3752 32.7217 69.7203 32.7217C70.0669 32.7217 70.3442 32.8402 70.5528 33.0771C70.7614 33.314 70.8657 33.6477 70.8657 34.0784ZM70.4198 34.0784C70.4198 33.748 70.3592 33.5025 70.238 33.3417C70.1167 33.181 69.9442 33.1006 69.7202 33.1006C69.4946 33.1006 69.3209 33.1811 69.1989 33.3417C69.0769 33.5023 69.0159 33.748 69.0159 34.0784C69.0159 34.3983 69.0769 34.6408 69.1989 34.8059C69.3209 34.9712 69.4946 35.0538 69.7202 35.0538C69.9425 35.0538 70.1149 34.9728 70.2369 34.8105C70.3589 34.6485 70.4198 34.4044 70.4198 34.0784Z" fill="#E1DBD4"/>
<path d="M73.4751 34.0099C73.4751 34.4378 73.3723 34.7787 73.167 35.0324C72.9615 35.2863 72.7019 35.4132 72.388 35.4132C72.2604 35.4132 72.1473 35.3987 72.0488 35.3695C71.9503 35.3402 71.8496 35.2951 71.7466 35.2337V36.3116H71.3125V32.7919H71.7466V33.0621C71.8542 32.9656 71.9738 32.8846 72.1055 32.8194C72.237 32.7543 72.3804 32.7217 72.5358 32.7217C72.831 32.7217 73.0615 32.8383 73.2268 33.0714C73.3924 33.3045 73.4751 33.6174 73.4751 34.0099ZM73.0292 34.0566C73.0292 33.7636 72.9822 33.5363 72.8883 33.3746C72.7942 33.2128 72.6417 33.132 72.4307 33.132C72.3074 33.132 72.1883 33.1592 72.0736 33.2136C71.9588 33.268 71.8498 33.3382 71.7466 33.4241V34.8801C71.8606 34.9352 71.9579 34.9728 72.0389 34.9927C72.1197 35.0127 72.2126 35.0226 72.3175 35.0226C72.5425 35.0226 72.7173 34.9406 72.842 34.7764C72.9668 34.6123 73.0292 34.3725 73.0292 34.0566Z" fill="#E1DBD4"/>
<path d="M75.0352 35.4211C74.6244 35.4211 74.3056 35.3057 74.0787 35.0749C73.8517 34.8442 73.7383 34.5165 73.7383 34.092C73.7383 33.6735 73.8482 33.3406 74.068 33.0931C74.2879 32.8456 74.5753 32.7217 74.9304 32.7217C75.0902 32.7217 75.2316 32.7448 75.3546 32.7907C75.4777 32.8366 75.5854 32.9084 75.6775 33.0066C75.7697 33.1045 75.8405 33.2243 75.8896 33.366C75.9387 33.5076 75.9634 33.681 75.9634 33.886V34.1203H74.1764C74.1764 34.4193 74.252 34.6475 74.4029 34.8054C74.5538 34.9632 74.7626 35.0422 75.0292 35.0422C75.1248 35.0422 75.2184 35.0316 75.31 35.0102C75.4016 34.9888 75.4845 34.9614 75.5584 34.9278C75.637 34.8929 75.7031 34.8589 75.7571 34.8262C75.811 34.7934 75.8557 34.7624 75.8911 34.7335H75.9165V35.2049C75.8657 35.2248 75.8026 35.2497 75.7273 35.2797C75.6517 35.3096 75.5841 35.3331 75.5242 35.35C75.4396 35.373 75.3632 35.3906 75.2947 35.4028C75.2263 35.4151 75.1398 35.4211 75.0352 35.4211ZM75.5411 33.7881C75.538 33.6719 75.5241 33.5719 75.4996 33.4877C75.4749 33.4036 75.4395 33.3325 75.3932 33.2743C75.3424 33.2101 75.2773 33.1613 75.1981 33.1276C75.1186 33.094 75.0207 33.0772 74.9035 33.0772C74.7882 33.0772 74.6899 33.0944 74.6091 33.1288C74.5283 33.1632 74.4548 33.2133 74.3885 33.279C74.3239 33.3463 74.2746 33.4208 74.2407 33.5026C74.2068 33.5844 74.1854 33.6796 74.176 33.7881H75.5411Z" fill="#E1DBD4"/>
<path d="M77.8336 35.0877C77.7983 35.1139 77.7511 35.1504 77.6921 35.1971C77.633 35.2439 77.576 35.2811 77.5208 35.3088C77.4441 35.3485 77.37 35.3791 77.2988 35.4008C77.2275 35.4221 77.1274 35.4329 76.9986 35.4329C76.8927 35.4329 76.7924 35.413 76.6973 35.3731C76.6022 35.3333 76.5186 35.2771 76.4465 35.2051C76.3774 35.1346 76.3222 35.0476 76.2808 34.9441C76.2394 34.8406 76.2188 34.7312 76.2188 34.6162C76.2188 34.4385 76.2564 34.2871 76.3314 34.1621C76.4067 34.0371 76.5255 33.9377 76.688 33.8642C76.8322 33.7983 77.0025 33.7525 77.1988 33.7272C77.395 33.702 77.6067 33.6832 77.8337 33.6709V33.5875C77.8337 33.4858 77.8183 33.4035 77.7878 33.341C77.7572 33.2785 77.7142 33.2303 77.6592 33.1964C77.6041 33.1609 77.5367 33.1373 77.457 33.1259C77.3772 33.1141 77.2954 33.1084 77.2111 33.1084C77.1116 33.1084 76.9945 33.1238 76.8596 33.1545C76.7247 33.1853 76.59 33.2299 76.4552 33.288H76.43V32.8472C76.5098 32.824 76.6242 32.7986 76.7731 32.7711C76.922 32.7432 77.0694 32.7295 77.2153 32.7295C77.3919 32.7295 77.5408 32.7432 77.6621 32.7709C77.7833 32.7985 77.8924 32.8484 77.9892 32.9205C78.0828 32.991 78.1527 33.0824 78.1986 33.1944C78.2448 33.3064 78.2678 33.4429 78.2678 33.6039V35.3623H77.8337V35.0877H77.8336ZM77.8336 34.7289V34.0226C77.7307 34.0317 77.6007 34.0443 77.4436 34.0603C77.2861 34.0763 77.1594 34.0987 77.0625 34.1277C76.9474 34.1626 76.8523 34.2163 76.7772 34.2886C76.702 34.361 76.6645 34.462 76.6645 34.5913C76.6645 34.7375 76.7059 34.848 76.7887 34.9224C76.8716 34.9971 76.9928 35.0344 77.1524 35.0344C77.2889 35.0344 77.4124 35.005 77.5229 34.946C77.6334 34.887 77.737 34.8147 77.8336 34.7289Z" fill="#E1DBD4"/>
<path d="M80.8968 35.3626H80.4627V33.8985C80.4627 33.7804 80.457 33.6702 80.4454 33.5681C80.4339 33.466 80.412 33.3843 80.38 33.323C80.3448 33.2585 80.2957 33.2107 80.2328 33.1792C80.17 33.1477 80.0842 33.132 79.9754 33.132C79.8682 33.132 79.7576 33.1607 79.6435 33.2182C79.5293 33.2758 79.4178 33.3506 79.3091 33.4426V35.3625H78.875V32.7919H79.3091V33.0782C79.4379 32.9632 79.5652 32.8751 79.691 32.8137C79.8169 32.7523 79.9495 32.7217 80.0892 32.7217C80.3422 32.7217 80.5402 32.8048 80.6828 32.9713C80.8255 33.1376 80.8968 33.3788 80.8968 33.6947V35.3626Z" fill="#E1DBD4"/>
<path d="M43.6523 41.0793C43.4038 41.0793 43.1926 41.0535 43.0185 41.0024C42.8443 40.9511 42.6806 40.888 42.5273 40.8128V40.2432H42.5595C42.7099 40.3835 42.8802 40.4921 43.0704 40.5691C43.2606 40.6461 43.4441 40.6846 43.6205 40.6846C43.8722 40.6846 44.0624 40.6321 44.1914 40.5271C44.3204 40.4221 44.3847 40.2839 44.3847 40.1121C44.3847 39.9757 44.3508 39.8647 44.2831 39.7787C44.2154 39.6929 44.1077 39.6293 43.9599 39.5879C43.8539 39.5573 43.7573 39.5319 43.6698 39.5121C43.5824 39.4922 43.4725 39.4653 43.3406 39.4316C43.2223 39.4008 43.1164 39.3617 43.0228 39.3142C42.9292 39.2667 42.8462 39.2045 42.7741 39.1278C42.7035 39.0527 42.6486 38.964 42.6096 38.862C42.5704 38.76 42.5509 38.6423 42.5509 38.5088C42.5509 38.231 42.6591 37.9982 42.8756 37.8102C43.0921 37.6223 43.3684 37.5283 43.7047 37.5283C43.8967 37.5283 44.0783 37.5474 44.2494 37.5858C44.4206 37.6242 44.5792 37.6786 44.7251 37.7491V38.294H44.6906C44.5814 38.1947 44.4417 38.1081 44.271 38.034C44.1003 37.9598 43.9215 37.9228 43.7339 37.9228C43.5218 37.9228 43.3505 37.9723 43.2198 38.0712C43.0892 38.1701 43.024 38.3 43.024 38.4609C43.024 38.6065 43.0624 38.7224 43.1394 38.808C43.2163 38.894 43.3278 38.9567 43.4741 38.9965C43.5707 39.0227 43.689 39.0522 43.8286 39.0852C43.9683 39.1182 44.0841 39.1484 44.1762 39.176C44.4126 39.2483 44.5853 39.3572 44.6943 39.5029C44.8033 39.6487 44.8579 39.8282 44.8579 40.0415C44.8579 40.1748 44.8306 40.307 44.7761 40.4374C44.7217 40.5677 44.6454 40.6781 44.5473 40.7686C44.4368 40.8684 44.3123 40.9451 44.1734 40.9989C44.0346 41.0524 43.8609 41.0793 43.6523 41.0793Z" fill="#E1DBD4"/>
<path d="M46.0664 41.0675C45.8303 41.0675 45.6464 41.0004 45.5145 40.8664C45.3826 40.7326 45.3168 40.5208 45.3168 40.2314V38.8096H45.0234V38.4463H45.3168V37.708H45.7508V38.4463H46.5447V38.8096H45.7508V40.0293C45.7508 40.1595 45.7531 40.2598 45.7577 40.3303C45.7622 40.4007 45.7799 40.4665 45.8105 40.5278C45.8364 40.5814 45.8785 40.6215 45.9367 40.6484C45.9949 40.6753 46.0736 40.6886 46.1731 40.6886C46.2435 40.6886 46.3113 40.6783 46.3773 40.6578C46.443 40.6373 46.4904 40.6202 46.5195 40.6065H46.5448V40.9942C46.4635 41.0172 46.381 41.0349 46.2974 41.0482C46.2137 41.0609 46.1368 41.0675 46.0664 41.0675Z" fill="#E1DBD4"/>
<path d="M48.8692 41.0167H48.4351V40.7304C48.3017 40.8472 48.1751 40.9357 48.0555 40.9962C47.9358 41.0566 47.8024 41.0871 47.6552 41.0871C47.5432 41.0871 47.4377 41.0687 47.3388 41.0319C47.2398 40.9952 47.1536 40.9368 47.0799 40.8571C47.0063 40.7774 46.9491 40.677 46.9086 40.5558C46.8679 40.4347 46.8477 40.2875 46.8477 40.1141V38.4463H47.2817V39.9104C47.2817 40.047 47.2868 40.1601 47.2966 40.2499C47.3065 40.3396 47.3293 40.4184 47.3645 40.4859C47.3996 40.5518 47.4476 40.6002 47.508 40.6309C47.5684 40.6617 47.6555 40.6769 47.7689 40.6769C47.8745 40.6769 47.9871 40.6469 48.1066 40.5867C48.2261 40.5267 48.3356 40.4527 48.4352 40.3648V38.4463H48.8693V41.0167H48.8692Z" fill="#E1DBD4"/>
<path d="M51.4789 41.0166H51.0448V40.7534C50.9771 40.8102 50.9186 40.8569 50.8693 40.8937C50.8202 40.9305 50.7625 40.9642 50.6963 40.9951C50.6347 41.0241 50.5709 41.0467 50.5048 41.0629C50.4387 41.0789 50.3617 41.0869 50.2741 41.0869C50.134 41.0869 50.0044 41.0578 49.8853 40.9997C49.766 40.9413 49.6649 40.8564 49.5818 40.7443C49.4971 40.631 49.4318 40.4911 49.3856 40.3248C49.3394 40.1584 49.3164 39.9672 49.3164 39.751C49.3164 39.5256 49.3456 39.3307 49.4041 39.1658C49.4626 39.0011 49.5431 38.8572 49.6464 38.7347C49.7402 38.6227 49.8536 38.5349 49.9869 38.4714C50.1199 38.4078 50.2595 38.3759 50.4057 38.3759C50.5348 38.3759 50.6473 38.3902 50.7426 38.4185C50.8378 38.4469 50.9387 38.4909 51.0449 38.5508V37.4385H51.479L51.4789 41.0166ZM51.0449 40.39V38.9094C50.937 38.8584 50.8403 38.8232 50.7548 38.8036C50.6694 38.7839 50.5765 38.7743 50.4764 38.7743C50.253 38.7743 50.078 38.8574 49.9517 39.0236C49.8255 39.1897 49.7623 39.43 49.7623 39.744C49.7623 40.0457 49.8108 40.2768 49.9079 40.4366C50.0049 40.5968 50.1606 40.6768 50.3747 40.6768C50.4885 40.6768 50.6034 40.651 50.719 40.5993C50.8345 40.5476 50.9432 40.4779 51.0449 40.39Z" fill="#E1DBD4"/>
<path d="M53.2188 41.0754C52.808 41.0754 52.4892 40.96 52.2622 40.7292C52.0352 40.4985 51.9219 40.1708 51.9219 39.7463C51.9219 39.3278 52.0317 38.9949 52.2516 38.7474C52.4715 38.4999 52.7589 38.376 53.114 38.376C53.2738 38.376 53.4152 38.3991 53.5382 38.445C53.6612 38.4909 53.769 38.5627 53.8611 38.6609C53.9533 38.7587 54.0241 38.8786 54.0732 39.0203C54.1222 39.1619 54.147 39.3353 54.147 39.5403V39.7746H52.36C52.36 40.0736 52.4356 40.3018 52.5865 40.4597C52.7374 40.6175 52.9462 40.6965 53.2128 40.6965C53.3084 40.6965 53.402 40.6859 53.4936 40.6645C53.5852 40.6431 53.6681 40.6157 53.742 40.5821C53.8205 40.5472 53.8867 40.5132 53.9407 40.4805C53.9946 40.4477 54.0393 40.4167 54.0747 40.3878H54.1001V40.8592C54.0493 40.8791 53.9862 40.904 53.9109 40.934C53.8353 40.9639 53.7677 40.9874 53.7078 41.0042C53.6232 41.0273 53.5467 41.0449 53.4783 41.0571C53.4099 41.0694 53.3234 41.0754 53.2188 41.0754ZM53.7247 39.4425C53.7216 39.3263 53.7077 39.2263 53.6831 39.1421C53.6585 39.058 53.6231 38.9869 53.5768 38.9288C53.526 38.8645 53.4609 38.8157 53.3817 38.782C53.3022 38.7484 53.2043 38.7316 53.0871 38.7316C52.9718 38.7316 52.8735 38.7489 52.7927 38.7832C52.7118 38.8176 52.6384 38.8678 52.5721 38.9334C52.5075 39.0008 52.4582 39.0753 52.4243 39.157C52.3904 39.2388 52.369 39.334 52.3596 39.4425H53.7247Z" fill="#E1DBD4"/>
<path d="M56.6077 41.0166H56.1736V39.5525C56.1736 39.4344 56.1679 39.3243 56.1564 39.2221C56.1449 39.12 56.123 39.0384 56.0909 38.977C56.0558 38.9125 56.0066 38.8648 55.9438 38.8333C55.881 38.8017 55.7951 38.786 55.6864 38.786C55.5791 38.786 55.4685 38.8148 55.3544 38.8723C55.2403 38.9299 55.1288 39.0046 55.02 39.0966V41.0165H54.5859V38.4462H55.02V38.7325C55.1488 38.6175 55.2762 38.5294 55.4019 38.468C55.5278 38.4066 55.6605 38.376 55.8001 38.376C56.0531 38.376 56.2511 38.4591 56.3938 38.6256C56.5364 38.7919 56.6077 39.0331 56.6077 39.349V41.0166Z" fill="#E1DBD4"/>
<path d="M57.9921 41.0675C57.756 41.0675 57.5721 41.0004 57.4402 40.8664C57.3083 40.7326 57.2425 40.5208 57.2425 40.2314V38.8096H56.9492V38.4463H57.2425V37.708H57.6766V38.4463H58.4705V38.8096H57.6766V40.0293C57.6766 40.1595 57.679 40.2598 57.6835 40.3303C57.688 40.4007 57.7057 40.4665 57.7363 40.5278C57.7623 40.5814 57.8044 40.6215 57.8626 40.6484C57.9206 40.6753 57.9995 40.6886 58.099 40.6886C58.1693 40.6886 58.2372 40.6783 58.303 40.6578C58.3689 40.6373 58.4162 40.6202 58.4453 40.6065H58.4706V40.9942C58.3894 41.0172 58.3069 41.0349 58.2233 41.0482C58.1396 41.0609 58.0627 41.0675 57.9921 41.0675Z" fill="#E1DBD4"/>
<path d="M59.4875 41.0752C59.3154 41.0752 59.1546 41.0521 59.0048 41.0059C58.8552 40.9599 58.731 40.9107 58.6328 40.8584V40.3719H58.6558C58.6926 40.4014 58.7359 40.434 58.7856 40.4697C58.8354 40.5053 58.9017 40.5427 58.9844 40.5814C59.058 40.6155 59.1387 40.6459 59.227 40.6723C59.3152 40.6987 59.4066 40.7118 59.5015 40.7118C59.5704 40.7118 59.644 40.7038 59.7222 40.6875C59.8002 40.6714 59.8585 40.6509 59.8969 40.6263C59.9506 40.5909 59.9892 40.5532 60.0129 40.5132C60.0367 40.4732 60.0486 40.4129 60.0486 40.3329C60.0486 40.2296 60.0208 40.1519 59.9654 40.0995C59.9099 40.0471 59.8116 40.0031 59.6703 39.9676C59.6149 39.9543 59.5425 39.9386 59.4535 39.9206C59.3644 39.9026 59.282 39.8832 59.2067 39.8624C59.0102 39.8056 58.8673 39.7179 58.7782 39.599C58.6893 39.4804 58.6448 39.3365 58.6448 39.1678C58.6448 38.9363 58.7323 38.7479 58.9076 38.6022C59.0826 38.4567 59.3154 38.3838 59.6057 38.3838C59.7486 38.3838 59.8922 38.4015 60.0365 38.4367C60.1809 38.472 60.3022 38.5165 60.4006 38.57V39.0322H60.3776C60.2672 38.9442 60.1443 38.8746 60.0088 38.8236C59.8732 38.7726 59.7363 38.7471 59.5985 38.7471C59.456 38.7471 59.3357 38.7769 59.2377 38.8371C59.1396 38.8969 59.0906 38.9877 59.0906 39.1091C59.0906 39.2166 59.1193 39.297 59.1773 39.35C59.235 39.4031 59.3278 39.4463 59.4556 39.4802C59.52 39.4971 59.5918 39.5136 59.6709 39.5297C59.75 39.5459 59.8334 39.5645 59.9208 39.586C60.1112 39.6335 60.2544 39.7125 60.3505 39.8229C60.4465 39.9333 60.4944 40.0834 60.4944 40.2734C60.4944 40.3838 60.4724 40.4883 60.4288 40.5872C60.3851 40.686 60.321 40.7708 60.2364 40.8411C60.1443 40.9177 60.0403 40.9761 59.9243 41.0158C59.8083 41.0556 59.6625 41.0752 59.4875 41.0752Z" fill="#E1DBD4"/>
<path d="M64.4868 39.7327C64.4868 40.1651 64.3824 40.4988 64.1739 40.7342C63.9654 40.9696 63.6878 41.0871 63.3414 41.0871C62.9841 41.0871 62.7031 40.9656 62.4984 40.7227C62.2938 40.4798 62.1914 40.1497 62.1914 39.7327C62.1914 39.3034 62.2968 38.9701 62.5076 38.7325C62.7185 38.4949 62.9964 38.376 63.3414 38.376C63.6879 38.376 63.9654 38.4945 64.1739 38.7314C64.3824 38.9683 64.4868 39.302 64.4868 39.7327ZM64.041 39.7327C64.041 39.4023 63.9805 39.1568 63.8592 38.996C63.7379 38.8353 63.5654 38.7549 63.3414 38.7549C63.1158 38.7549 62.9421 38.8354 62.8201 38.996C62.6981 39.1566 62.6371 39.4023 62.6371 39.7327C62.6371 40.0526 62.6981 40.2951 62.8201 40.4602C62.9421 40.6255 63.1158 40.7081 63.3414 40.7081C63.5638 40.7081 63.7359 40.6271 63.858 40.4648C63.98 40.3027 64.041 40.0586 64.041 39.7327Z" fill="#E1DBD4"/>
<path d="M66.287 37.8527H66.2639C66.2255 37.8392 66.1703 37.8261 66.0984 37.8133C66.0263 37.8006 65.9619 37.7942 65.9052 37.7942C65.7227 37.7942 65.5928 37.8351 65.5154 37.9166C65.4379 37.9983 65.3993 38.1458 65.3993 38.3595V38.4465H66.1149V38.8097H65.4149V41.0169H64.9808V38.8097H64.6875V38.4465H64.9808V38.3615C64.9808 38.0521 65.0551 37.8172 65.2038 37.6562C65.3525 37.4955 65.5657 37.415 65.843 37.415C65.9227 37.415 66.0009 37.4193 66.0776 37.4278C66.1541 37.4362 66.224 37.4458 66.2868 37.4564L66.287 37.8527Z" fill="#E1DBD4"/>
<path d="M68.7435 41.0168V37.9971H67.5938V37.5908H70.3506V37.9971H69.2009V41.0168H68.7435Z" fill="#E1DBD4"/>
<path d="M71.2969 41.0754C70.8861 41.0754 70.5674 40.96 70.3404 40.7292C70.1134 40.4985 70 40.1708 70 39.7463C70 39.3278 70.1099 38.9949 70.3297 38.7474C70.5496 38.4999 70.837 38.376 71.1922 38.376C71.352 38.376 71.4934 38.3991 71.6164 38.445C71.7394 38.4909 71.8471 38.5627 71.9392 38.6609C72.0314 38.7587 72.1023 38.8786 72.1513 39.0203C72.2004 39.1619 72.2251 39.3353 72.2251 39.5403V39.7746H70.4381C70.4381 40.0736 70.5137 40.3018 70.6646 40.4597C70.8155 40.6175 71.0244 40.6965 71.2909 40.6965C71.3865 40.6965 71.4801 40.6859 71.5717 40.6645C71.6633 40.6431 71.7463 40.6157 71.8201 40.5821C71.8987 40.5472 71.9649 40.5132 72.0188 40.4805C72.0727 40.4477 72.1174 40.4167 72.1528 40.3878H72.1782V40.8592C72.1274 40.8791 72.0644 40.904 71.989 40.934C71.9134 40.9639 71.8459 40.9874 71.7859 41.0042C71.7013 41.0273 71.6249 41.0449 71.5564 41.0571C71.488 41.0694 71.4015 41.0754 71.2969 41.0754ZM71.8028 39.4425C71.7997 39.3263 71.7858 39.2263 71.7613 39.1421C71.7366 39.058 71.7012 38.9869 71.6549 38.9288C71.6041 38.8645 71.539 38.8157 71.4598 38.782C71.3804 38.7484 71.2824 38.7316 71.1653 38.7316C71.0499 38.7316 70.9516 38.7489 70.8708 38.7832C70.79 38.8176 70.7165 38.8678 70.6502 38.9334C70.5856 39.0008 70.5363 39.0753 70.5024 39.157C70.4685 39.2388 70.4471 39.334 70.4377 39.4425H71.8028Z" fill="#E1DBD4"/>
<path d="M73.6838 41.0753C73.5073 41.0753 73.3453 41.0481 73.198 40.9937C73.0506 40.9392 72.9241 40.8567 72.8181 40.7463C72.7122 40.6358 72.6302 40.4966 72.5718 40.3286C72.5135 40.1605 72.4844 39.963 72.4844 39.736C72.4844 39.5106 72.5147 39.3159 72.5753 39.1516C72.636 38.9874 72.717 38.8495 72.8181 38.7375C72.9196 38.6255 73.0456 38.5392 73.1969 38.4787C73.3479 38.4182 73.5104 38.3877 73.6838 38.3877C73.8251 38.3877 73.9612 38.4076 74.0925 38.4476C74.2237 38.4876 74.3407 38.5335 74.4436 38.5856V39.0714H74.4183C74.3875 39.0456 74.3479 39.0161 74.2994 38.9827C74.251 38.9494 74.1922 38.9152 74.123 38.8803C74.0631 38.8501 73.9922 38.8236 73.9108 38.8007C73.8293 38.778 73.7509 38.7667 73.6754 38.7667C73.4509 38.7667 73.2707 38.8511 73.1346 39.02C72.9984 39.1887 72.9304 39.4275 72.9304 39.7361C72.9304 40.0388 72.996 40.2746 73.1276 40.4432C73.2591 40.6122 73.4418 40.6964 73.6754 40.6964C73.8169 40.6964 73.9516 40.6678 74.0792 40.6103C74.2069 40.5528 74.32 40.4787 74.4185 40.3879H74.4437V40.8731C74.4007 40.893 74.3471 40.9172 74.2826 40.9455C74.218 40.974 74.1599 40.995 74.1076 41.0087C74.034 41.0302 73.968 41.0468 73.9097 41.0582C73.8513 41.0696 73.7759 41.0753 73.6838 41.0753Z" fill="#E1DBD4"/>
<path d="M76.8617 41.0169H76.4276V39.5528C76.4276 39.4347 76.4218 39.3246 76.4103 39.2225C76.3988 39.1203 76.3769 39.0387 76.3448 38.9773C76.3096 38.9128 76.2606 38.8651 76.1978 38.8336C76.135 38.8021 76.0492 38.7863 75.9404 38.7863C75.8332 38.7863 75.7224 38.8151 75.6083 38.8726C75.4942 38.9302 75.3827 39.0049 75.2739 39.0969V41.0168H74.8398V37.4385H75.2739V38.7327C75.4027 38.6177 75.5301 38.5295 75.656 38.4682C75.7816 38.4068 75.9143 38.3762 76.054 38.3762C76.307 38.3762 76.505 38.4593 76.6477 38.6258C76.7903 38.7921 76.8617 39.0333 76.8617 39.3492V41.0169Z" fill="#E1DBD4"/>
<path d="M79.4906 41.0166H79.0565V39.5525C79.0565 39.4344 79.0507 39.3243 79.0392 39.2221C79.0277 39.12 79.0058 39.0384 78.9738 38.977C78.9385 38.9125 78.8895 38.8648 78.8267 38.8333C78.7639 38.8017 78.6781 38.786 78.5693 38.786C78.4621 38.786 78.3513 38.8148 78.2372 38.8723C78.1231 38.9299 78.0116 39.0046 77.9028 39.0966V41.0165H77.4688V38.4462H77.9028V38.7325C78.0316 38.6175 78.159 38.5294 78.2849 38.468C78.4105 38.4066 78.5432 38.376 78.6829 38.376C78.936 38.376 79.1339 38.4591 79.2766 38.6256C79.4192 38.7919 79.4906 39.0331 79.4906 39.349V41.0166Z" fill="#E1DBD4"/>
<path d="M82.2172 39.7327C82.2172 40.1651 82.1129 40.4988 81.9044 40.7342C81.6959 40.9696 81.4182 41.0871 81.0719 41.0871C80.7146 41.0871 80.4336 40.9656 80.2288 40.7227C80.0242 40.4798 79.9219 40.1497 79.9219 39.7327C79.9219 39.3034 80.0272 38.9701 80.2381 38.7325C80.4489 38.4949 80.7269 38.376 81.0719 38.376C81.4184 38.376 81.6959 38.4945 81.9044 38.7314C82.1129 38.9683 82.2172 39.302 82.2172 39.7327ZM81.7715 39.7327C81.7715 39.4023 81.7109 39.1568 81.5897 38.996C81.4684 38.8353 81.2959 38.7549 81.0719 38.7549C80.8462 38.7549 80.6726 38.8354 80.5506 38.996C80.4286 39.1566 80.3676 39.4023 80.3676 39.7327C80.3676 40.0526 80.4286 40.2951 80.5506 40.4602C80.6726 40.6255 80.8462 40.7081 81.0719 40.7081C81.2942 40.7081 81.4664 40.6271 81.5884 40.4648C81.7103 40.3027 81.7715 40.0586 81.7715 39.7327Z" fill="#E1DBD4"/>
<path d="M83.106 41.0168H82.6719V37.4385H83.106V41.0168Z" fill="#E1DBD4"/>
<path d="M85.8539 39.7327C85.8539 40.1651 85.7496 40.4988 85.5411 40.7342C85.3326 40.9696 85.055 41.0871 84.7086 41.0871C84.3513 41.0871 84.0703 40.9656 83.8655 40.7227C83.661 40.4798 83.5586 40.1497 83.5586 39.7327C83.5586 39.3034 83.664 38.9701 83.8748 38.7325C84.0857 38.4949 84.3636 38.376 84.7086 38.376C85.0551 38.376 85.3326 38.4945 85.5411 38.7314C85.7496 38.9683 85.8539 39.302 85.8539 39.7327ZM85.4082 39.7327C85.4082 39.4023 85.3476 39.1568 85.2264 38.996C85.1051 38.8353 84.9326 38.7549 84.7086 38.7549C84.483 38.7549 84.3093 38.8354 84.1873 38.996C84.0653 39.1566 84.0043 39.4023 84.0043 39.7327C84.0043 40.0526 84.0653 40.2951 84.1873 40.4602C84.3093 40.6255 84.483 40.7081 84.7086 40.7081C84.9309 40.7081 85.1031 40.6271 85.2251 40.4648C85.3472 40.3027 85.4082 40.0586 85.4082 39.7327Z" fill="#E1DBD4"/>
<path d="M86.3904 41.4268C86.4195 41.4389 86.4627 41.455 86.5196 41.4755C86.5766 41.4958 86.6413 41.515 86.7136 41.5332C86.7936 41.5527 86.8674 41.5685 86.9352 41.5807C87.003 41.5928 87.0769 41.5988 87.1568 41.5988C87.2907 41.5988 87.4044 41.5812 87.4975 41.5462C87.5906 41.511 87.6633 41.4623 87.7156 41.3998C87.765 41.3371 87.7994 41.2648 87.8194 41.1825C87.8394 41.1001 87.8495 41.0064 87.8495 40.9011V40.677C87.7325 40.7784 87.618 40.853 87.5056 40.9014C87.3935 40.9497 87.2527 40.9737 87.0833 40.9737C86.7894 40.9737 86.5556 40.8649 86.3819 40.647C86.2079 40.4292 86.1211 40.1163 86.1211 39.7082C86.1211 39.495 86.1511 39.306 86.2111 39.141C86.2711 38.9763 86.3518 38.8363 86.4536 38.7211C86.5503 38.6107 86.6649 38.5256 86.7973 38.4657C86.9297 38.4059 87.0665 38.376 87.208 38.376C87.3419 38.376 87.4575 38.3917 87.5553 38.4232C87.653 38.4546 87.751 38.4994 87.8496 38.5577L87.875 38.4462H88.2837V40.7241C88.2837 41.1596 88.1882 41.4795 87.9975 41.6834C87.8067 41.8875 87.515 41.9894 87.1226 41.9894C86.9962 41.9894 86.8674 41.9794 86.7358 41.9596C86.6041 41.9396 86.4815 41.9127 86.3676 41.8788V41.427H86.3904V41.4268ZM87.8493 40.3203V38.9094C87.7415 38.8581 87.6416 38.8214 87.5499 38.7994C87.4582 38.7774 87.3671 38.7664 87.2761 38.7664C87.0557 38.7664 86.8824 38.847 86.756 39.008C86.6296 39.1691 86.5666 39.4 86.5666 39.7007C86.5666 39.9861 86.6148 40.2032 86.711 40.3518C86.8073 40.5007 86.9633 40.5751 87.179 40.5751C87.2914 40.5751 87.4072 40.5527 87.5267 40.508C87.6462 40.4632 87.7537 40.4007 87.8493 40.3203Z" fill="#E1DBD4"/>
<path d="M90.9282 38.4463L89.5456 41.966H89.0839L89.5441 40.8953L88.6094 38.4463H89.0739L89.778 40.3561L90.4789 38.4463H90.9282Z" fill="#E1DBD4"/>
<path d="M34.6297 29.9002L31.1449 27.8936H22.0433L18.5586 29.9002C21.8928 35.6867 31.863 45.1654 42.6658 45.9848C38.901 43.8771 32.9106 36.3093 34.6297 29.9002Z" fill="#E1DBD4"/>
<path d="M37.0893 0.0146484C37.144 4.32327 33.5806 13.289 27.1634 15.0071L27.1657 19.0261L31.7169 26.9005L35.1984 28.9127C38.5485 23.1347 41.7797 9.7682 37.0893 0.0146484Z" fill="#E1DBD4"/>
<path d="M0.0234375 27.8238C3.73218 25.6188 13.2889 24.2201 17.9854 28.9127L21.4679 26.9006L21.3991 27.02L26.0183 19.0278L26.0214 15.0088C19.3375 14.9987 6.13565 18.8865 0.0234375 27.8238Z" fill="#E1DBD4"/>
<path d="M24.4609 24.6071C24.4609 23.4304 25.415 22.4756 26.5936 22.4756C27.7723 22.4756 28.7278 23.4304 28.7278 24.6071C28.7278 25.7845 27.7723 26.7385 26.5936 26.7385C25.415 26.7385 24.4609 25.7845 24.4609 24.6071Z" fill="#E1DBD4"/>
</svg>
