<svg width="148" height="40" viewBox="0 0 148 40" fill="none" xmlns="http://www.w3.org/2000/svg">
<path d="M0.177994 27.8625C0.1452 27.2937 0.479365 26.9918 1.01539 26.9918H4.69969C5.20348 26.9918 5.4698 27.2592 5.57102 27.7952C5.83959 29.0018 6.84438 29.6034 8.81939 29.6034C10.9974 29.6034 11.7002 28.7678 11.7002 27.7952C11.7002 26.4229 10.0254 25.8196 7.98313 25.1168C4.66691 23.9769 0.479366 22.6046 0.479366 17.4796C0.479366 12.7905 4.29827 10.4463 8.28392 10.4463C12.2029 10.4463 15.9545 12.5565 16.3565 17.4123C16.3893 17.9811 16.0546 18.2831 15.5185 18.2831H11.8348C11.3316 18.2831 11.0641 18.0156 10.964 17.4796C10.6955 16.2402 9.82528 15.6708 8.28392 15.6708C6.60969 15.6708 5.83959 16.5071 5.83959 17.4796C5.83959 18.8864 7.21187 19.5553 9.15525 20.2581C12.5048 21.4325 17.0599 22.6374 17.0599 27.7952C17.0599 32.4843 13.3089 34.8285 8.81939 34.8285C4.43227 34.8285 0.580578 32.7184 0.177994 27.8625Z" fill="black"/>
<path d="M34.6465 30.04V33.5235C34.6465 34.0596 34.3451 34.3598 33.8091 34.3598H22.2535H21.4161C20.8795 34.3598 20.5781 34.0596 20.5781 33.5235V11.7513C20.5781 11.2153 20.8795 10.915 21.4161 10.915H25.9378H33.6417C34.1777 10.915 34.4785 11.2153 34.4785 11.7513V15.2355C34.4785 15.7715 34.1777 16.0729 33.6417 16.0729H25.9378V19.9918H32.8037C33.3398 19.9918 33.6417 20.2932 33.6417 20.8292V24.1788C33.6417 24.7148 33.3398 25.0145 32.8037 25.0145H25.9378V29.202H33.8091C34.3451 29.202 34.6465 29.504 34.6465 30.04Z" fill="black"/>
<path d="M56.3524 22.6374C56.3524 18.4505 53.3381 15.6714 49.5198 15.6714C45.7015 15.6714 42.6859 18.4505 42.6859 22.6374C42.6859 26.8244 45.7015 29.6035 49.5198 29.6035C53.3381 29.6035 56.3524 26.8244 56.3524 22.6374ZM37.3281 22.6374C37.3281 15.7364 42.7873 10.4463 49.5198 10.4463C56.251 10.4463 61.7109 15.7364 61.7109 22.6374C61.7109 29.5362 56.251 34.8291 49.5198 34.8291C42.7873 34.8291 37.3281 29.5362 37.3281 22.6374Z" fill="black"/>
<path d="M105.864 22.6374C105.864 18.4505 102.849 15.6714 99.031 15.6714C95.2122 15.6714 92.1988 18.4505 92.1988 22.6374C92.1988 26.8244 95.2122 29.6035 99.031 29.6035C102.849 29.6035 105.864 26.8244 105.864 22.6374ZM86.8398 22.6374C86.8398 15.7364 92.2989 10.4463 99.031 10.4463C105.764 10.4463 111.224 15.7364 111.224 22.6374C111.224 29.5362 105.764 34.8291 99.031 34.8291C92.2989 34.8291 86.8398 29.5362 86.8398 22.6374Z" fill="black"/>
<path d="M113.604 27.8625C113.57 27.2937 113.905 26.9918 114.442 26.9918H118.126C118.627 26.9918 118.896 27.2592 118.996 27.7952C119.266 29.0018 120.269 29.6034 122.246 29.6034C124.423 29.6034 125.126 28.7678 125.126 27.7952C125.126 26.4229 123.451 25.8196 121.408 25.1168C118.091 23.9769 113.905 22.6046 113.905 17.4796C113.905 12.7905 117.724 10.4463 121.71 10.4463C125.628 10.4463 129.379 12.5565 129.781 17.4123C129.815 17.9811 129.481 18.2831 128.945 18.2831H125.259C124.757 18.2831 124.49 18.0156 124.388 17.4796C124.121 16.2402 123.251 15.6708 121.71 15.6708C120.034 15.6708 119.266 16.5071 119.266 17.4796C119.266 18.8864 120.637 19.5553 122.58 20.2581C125.93 21.4325 130.484 22.6374 130.484 27.7952C130.484 32.4843 126.733 34.8285 122.246 34.8285C117.857 34.8285 114.006 32.7184 113.604 27.8625Z" fill="black"/>
<path d="M147.737 11.7513V15.2355C147.737 15.7715 147.436 16.0728 146.899 16.0728H142.377V33.5235C142.377 34.0596 142.077 34.3593 141.541 34.3593H137.855C137.321 34.3593 137.02 34.0596 137.02 33.5235V16.0728H132.498C131.962 16.0728 131.66 15.7715 131.66 15.2355V11.7513C131.66 11.2153 131.962 10.915 132.498 10.915H142.377H146.899C147.436 10.915 147.737 11.2153 147.737 11.7513Z" fill="black"/>
<path d="M79.5658 1.72968L76.8984 5.32974C76.2309 5.99638 76.6931 7.12949 77.6278 7.13797C77.6252 7.15269 77.6218 7.16736 77.6197 7.18148L77.6252 8.86309L77.6261 16.0909C77.6261 16.5087 77.4416 16.7852 77.1045 16.8853C77.0532 16.9006 73.8557 18.2842 70.9249 19.5513V11.7744C70.9249 11.2379 70.6243 10.9365 70.0878 10.9365H66.4035C65.8675 10.9365 65.5664 11.2379 65.5664 11.7744V22.4157C65.5664 22.4174 65.5689 22.4209 65.5689 22.4243C65.5689 22.4282 65.5664 22.4299 65.5664 22.4333V22.5916V25.6325V33.523C65.5664 34.0596 65.8683 34.3592 66.4052 34.3592H70.0882C70.6247 34.3592 70.9262 34.0596 70.9262 33.523L70.9249 26.6536C70.9249 26.2086 71.1315 25.9265 71.508 25.8417C71.5492 25.8321 74.7195 24.4569 77.6261 23.1966L76.8818 28.8701C76.8818 29.405 77.1825 29.7069 77.7185 29.7069H82.907C83.4426 29.7069 83.7445 29.405 83.7445 28.8701L82.985 23.2023V20.3254V20.2728V20.1167V7.18148H82.9804C82.9804 7.16172 82.9765 7.14022 82.9749 7.12042C83.9116 7.10744 84.3845 5.97149 83.7195 5.30826L81.0682 1.72572C80.8617 1.51991 80.5916 1.41699 80.3206 1.41699C80.0484 1.41699 79.7757 1.52104 79.5658 1.72968Z" fill="black"/>
<path d="M82.3398 36.3552V32.0563C82.3398 31.6435 82.5731 31.4111 82.9849 31.4111H83.0955C83.5069 31.4111 83.7401 31.6435 83.7401 32.0563V36.3552C83.7401 36.7685 83.5069 37.0009 83.0955 37.0009H82.9849C82.5731 37.0009 82.3398 36.7685 82.3398 36.3552Z" fill="black"/>
<path d="M76.8789 36.3552V32.0563C76.8789 31.6435 77.1126 31.4111 77.5248 31.4111H77.635C78.0468 31.4111 78.2796 31.6435 78.2796 32.0563V36.3552C78.2796 36.7685 78.0468 37.0009 77.635 37.0009H77.5248C77.1126 37.0009 76.8789 36.7685 76.8789 36.3552Z" fill="black"/>
<path d="M79.6172 38.1218V33.8229C79.6172 33.4101 79.8504 33.1777 80.2622 33.1777H80.3729C80.7847 33.1777 81.0175 33.4101 81.0175 33.8229V38.1218C81.0175 38.5357 80.7847 38.767 80.3729 38.767H80.2622C79.8504 38.767 79.6172 38.5357 79.6172 38.1218Z" fill="black"/>
</svg>
