<svg width="291" height="244" viewBox="0 0 291 244" fill="none" xmlns="http://www.w3.org/2000/svg">
<path d="M248.554 91.1064C248.554 86.8409 245.074 83.383 240.782 83.383C236.491 83.383 233.011 86.8409 233.011 91.1064V98.8298H225.24C220.948 98.8298 217.469 102.288 217.469 106.553C217.469 110.819 220.948 114.277 225.24 114.277H233.011V122C233.011 126.266 236.491 129.723 240.782 129.723C245.074 129.723 248.554 126.266 248.554 122V114.277H256.325C260.617 114.277 264.096 110.819 264.096 106.553C264.096 102.288 260.617 98.8298 256.325 98.8298H248.554V91.1064Z" fill="#252525" fill-opacity="0.2"/>
<path fill-rule="evenodd" clip-rule="evenodd" d="M80.1778 1C84.4697 1 87.949 4.45789 87.949 8.7234V26.9955C95.0869 26.7447 103.556 26.7447 113.853 26.7447H165.661C173.572 26.7447 180.405 26.7447 186.384 26.8585V8.7234C186.384 4.45789 189.863 1 194.155 1C198.447 1 201.927 4.45789 201.927 8.7234V27.649C209.451 28.4066 215.214 29.7986 220.266 32.3567C230.014 37.2932 237.94 45.17 242.907 54.8584C243.424 55.8676 243.894 56.9053 244.321 57.9801C269.828 59.6329 290 80.6737 290 106.387C290 130.66 272.024 150.77 248.554 154.337V160.617C248.554 189.453 248.554 203.872 242.907 214.886C237.94 224.575 230.014 232.451 220.266 237.388C209.184 243 194.676 243 165.661 243H113.853C84.8379 243 70.3302 243 59.2479 237.388C51.8161 233.624 44.6056 226.819 39.7958 220.138H43.1693C44.1304 220.138 45.0585 220.155 45.9623 220.17C50.3451 220.247 54.1555 220.314 58.3503 218.465C60.1952 219.511 61.2144 220.283 62.1721 221.008C63.2575 221.829 64.264 222.591 66.3042 223.625C69.2888 225.136 73.4132 226.279 81.0912 226.903C88.9504 227.541 99.0887 227.553 113.853 227.553H165.661C180.425 227.553 190.563 227.541 198.423 226.903C206.101 226.279 210.225 225.136 213.21 223.625C220.034 220.169 225.581 214.656 229.058 207.873C230.579 204.907 231.73 200.808 232.357 193.177C232.999 185.366 233.011 175.29 233.011 160.617V154.241C209.837 150.425 192.167 130.452 192.167 106.387C192.167 84.1486 207.256 65.4051 227.834 59.6761C224.343 53.8987 219.282 49.1946 213.21 46.1199C210.715 44.8564 207.424 43.8503 201.927 43.19V55.0638C201.927 59.3294 198.447 62.7872 194.155 62.7872C189.863 62.7872 186.384 59.3294 186.384 55.0638V42.3079C180.636 42.1952 173.862 42.1915 165.661 42.1915H113.853C103.047 42.1915 94.7191 42.1979 87.949 42.4516V55.0638C87.949 59.3294 84.4697 62.7872 80.1778 62.7872C75.8859 62.7872 72.4066 59.3294 72.4066 55.0638V44.0413C69.8062 44.6145 67.8935 45.3149 66.3041 46.1199C60.1866 49.2177 55.0944 53.9697 51.6007 59.8065C47.573 58.4019 43.242 57.6383 38.7314 57.6383C37.5645 57.6383 36.4097 57.6893 35.269 57.7897C35.6754 56.7826 36.1202 55.8079 36.6069 54.8584C41.574 45.17 49.4995 37.2932 59.2479 32.3567C63.0738 30.4192 67.3081 29.1506 72.4066 28.32V8.7234C72.4066 4.45789 75.8859 1 80.1778 1ZM204.959 106.553C204.959 86.872 221.009 70.9377 240.782 70.9377C260.556 70.9377 276.606 86.872 276.606 106.553C276.606 126.234 260.556 142.169 240.782 142.169C221.009 142.169 204.959 126.234 204.959 106.553Z" fill="#252525" fill-opacity="0.2"/>
<path fill-rule="evenodd" clip-rule="evenodd" d="M46.5026 157.129H48.9043C64.0579 157.129 76.3424 169.312 76.3424 184.34C76.3424 199.368 64.0579 211.551 48.9043 211.551H28.4381C13.2845 211.551 1 199.368 1 184.34C1 169.312 13.2845 157.129 28.4381 157.129H30.9603V133.977C16.1085 130.49 5.05628 117.23 5.05628 101.404C5.05628 82.9204 20.1332 67.9362 38.7314 67.9362C57.3297 67.9362 72.4066 82.9204 72.4066 101.404C72.4066 117.23 61.3544 130.49 46.5026 133.977V157.129ZM28.4703 158.244H28.4381C13.9055 158.244 2.12451 169.928 2.12451 184.34C2.12451 184.353 2.12452 184.365 2.12454 184.378C2.14519 169.952 13.9213 158.244 28.4703 158.244ZM30.9603 169.396H28.4703C20.1418 169.396 13.3696 176.11 13.3696 184.416C13.3696 192.722 20.1418 199.436 28.4703 199.436H49.1934C57.5219 199.436 64.2941 192.722 64.2941 184.416C64.2941 176.11 57.5219 169.396 49.1934 169.396H46.5026V183.787C46.5026 188.053 43.0234 191.511 38.7314 191.511C34.4395 191.511 30.9603 188.053 30.9603 183.787V169.396Z" fill="#252525" fill-opacity="0.2"/>
<path d="M178.613 98.8298H100.901C96.6091 98.8298 93.1298 102.288 93.1298 106.553C93.1298 110.819 96.6091 114.277 100.901 114.277H178.613C182.905 114.277 186.384 110.819 186.384 106.553C186.384 102.288 182.905 98.8298 178.613 98.8298Z" fill="#252525" fill-opacity="0.2"/>
<path d="M100.901 129.723H178.613C182.905 129.723 186.384 133.181 186.384 137.447C186.384 141.712 182.905 145.17 178.613 145.17H100.901C96.6091 145.17 93.1298 141.712 93.1298 137.447C93.1298 133.181 96.6091 129.723 100.901 129.723Z" fill="#252525" fill-opacity="0.2"/>
<path d="M178.613 160.617H100.901C96.6091 160.617 93.1298 164.075 93.1298 168.34C93.1298 172.606 96.6091 176.064 100.901 176.064H178.613C182.905 176.064 186.384 172.606 186.384 168.34C186.384 164.075 182.905 160.617 178.613 160.617Z" fill="#252525" fill-opacity="0.2"/>
<path d="M248.554 91.1064C248.554 86.8409 245.074 83.383 240.782 83.383C236.491 83.383 233.011 86.8409 233.011 91.1064V98.8298H225.24C220.948 98.8298 217.469 102.288 217.469 106.553C217.469 110.819 220.948 114.277 225.24 114.277H233.011V122C233.011 126.266 236.491 129.723 240.782 129.723C245.074 129.723 248.554 126.266 248.554 122V114.277H256.325C260.617 114.277 264.096 110.819 264.096 106.553C264.096 102.288 260.617 98.8298 256.325 98.8298H248.554V91.1064Z" stroke="#898989"/>
<path fill-rule="evenodd" clip-rule="evenodd" d="M80.1778 1C84.4697 1 87.949 4.45789 87.949 8.7234V26.9955C95.0869 26.7447 103.556 26.7447 113.853 26.7447H165.661C173.572 26.7447 180.405 26.7447 186.384 26.8585V8.7234C186.384 4.45789 189.863 1 194.155 1C198.447 1 201.927 4.45789 201.927 8.7234V27.649C209.451 28.4066 215.214 29.7986 220.266 32.3567C230.014 37.2932 237.94 45.17 242.907 54.8584C243.424 55.8676 243.894 56.9053 244.321 57.9801C269.828 59.6329 290 80.6737 290 106.387C290 130.66 272.024 150.77 248.554 154.337V160.617C248.554 189.453 248.554 203.872 242.907 214.886C237.94 224.575 230.014 232.451 220.266 237.388C209.184 243 194.676 243 165.661 243H113.853C84.8379 243 70.3302 243 59.2479 237.388C51.8161 233.624 44.6056 226.819 39.7958 220.138H43.1693C44.1304 220.138 45.0585 220.155 45.9623 220.17C50.3451 220.247 54.1555 220.314 58.3503 218.465C60.1952 219.511 61.2144 220.283 62.1721 221.008C63.2575 221.829 64.264 222.591 66.3042 223.625C69.2888 225.136 73.4132 226.279 81.0912 226.903C88.9504 227.541 99.0887 227.553 113.853 227.553H165.661C180.425 227.553 190.563 227.541 198.423 226.903C206.101 226.279 210.225 225.136 213.21 223.625C220.034 220.169 225.581 214.656 229.058 207.873C230.579 204.907 231.73 200.808 232.357 193.177C232.999 185.366 233.011 175.29 233.011 160.617V154.241C209.837 150.425 192.167 130.452 192.167 106.387C192.167 84.1486 207.256 65.4051 227.834 59.6761C224.343 53.8987 219.282 49.1946 213.21 46.1199C210.715 44.8564 207.424 43.8503 201.927 43.19V55.0638C201.927 59.3294 198.447 62.7872 194.155 62.7872C189.863 62.7872 186.384 59.3294 186.384 55.0638V42.3079C180.636 42.1952 173.862 42.1915 165.661 42.1915H113.853C103.047 42.1915 94.7191 42.1979 87.949 42.4516V55.0638C87.949 59.3294 84.4697 62.7872 80.1778 62.7872C75.8859 62.7872 72.4066 59.3294 72.4066 55.0638V44.0413C69.8062 44.6145 67.8935 45.3149 66.3041 46.1199C60.1866 49.2177 55.0944 53.9697 51.6007 59.8065C47.573 58.4019 43.242 57.6383 38.7314 57.6383C37.5645 57.6383 36.4097 57.6893 35.269 57.7897C35.6754 56.7826 36.1202 55.8079 36.6069 54.8584C41.574 45.17 49.4995 37.2932 59.2479 32.3567C63.0738 30.4192 67.3081 29.1506 72.4066 28.32V8.7234C72.4066 4.45789 75.8859 1 80.1778 1ZM204.959 106.553C204.959 86.872 221.009 70.9377 240.782 70.9377C260.556 70.9377 276.606 86.872 276.606 106.553C276.606 126.234 260.556 142.169 240.782 142.169C221.009 142.169 204.959 126.234 204.959 106.553Z" stroke="#898989"/>
<path fill-rule="evenodd" clip-rule="evenodd" d="M46.5026 157.129H48.9043C64.0579 157.129 76.3424 169.312 76.3424 184.34C76.3424 199.368 64.0579 211.551 48.9043 211.551H28.4381C13.2845 211.551 1 199.368 1 184.34C1 169.312 13.2845 157.129 28.4381 157.129H30.9603V133.977C16.1085 130.49 5.05628 117.23 5.05628 101.404C5.05628 82.9204 20.1332 67.9362 38.7314 67.9362C57.3297 67.9362 72.4066 82.9204 72.4066 101.404C72.4066 117.23 61.3544 130.49 46.5026 133.977V157.129ZM28.4703 158.244H28.4381C13.9055 158.244 2.12451 169.928 2.12451 184.34C2.12451 184.353 2.12452 184.365 2.12454 184.378C2.14519 169.952 13.9213 158.244 28.4703 158.244ZM30.9603 169.396H28.4703C20.1418 169.396 13.3696 176.11 13.3696 184.416C13.3696 192.722 20.1418 199.436 28.4703 199.436H49.1934C57.5219 199.436 64.2941 192.722 64.2941 184.416C64.2941 176.11 57.5219 169.396 49.1934 169.396H46.5026V183.787C46.5026 188.053 43.0234 191.511 38.7314 191.511C34.4395 191.511 30.9603 188.053 30.9603 183.787V169.396Z" stroke="#898989"/>
<path d="M178.613 98.8298H100.901C96.6091 98.8298 93.1298 102.288 93.1298 106.553C93.1298 110.819 96.6091 114.277 100.901 114.277H178.613C182.905 114.277 186.384 110.819 186.384 106.553C186.384 102.288 182.905 98.8298 178.613 98.8298Z" stroke="#898989"/>
<path d="M100.901 129.723H178.613C182.905 129.723 186.384 133.181 186.384 137.447C186.384 141.712 182.905 145.17 178.613 145.17H100.901C96.6091 145.17 93.1298 141.712 93.1298 137.447C93.1298 133.181 96.6091 129.723 100.901 129.723Z" stroke="#898989"/>
<path d="M178.613 160.617H100.901C96.6091 160.617 93.1298 164.075 93.1298 168.34C93.1298 172.606 96.6091 176.064 100.901 176.064H178.613C182.905 176.064 186.384 172.606 186.384 168.34C186.384 164.075 182.905 160.617 178.613 160.617Z" stroke="#898989"/>
</svg>
