<svg width="192" height="47" viewBox="0 0 192 47" fill="none" xmlns="http://www.w3.org/2000/svg">
    <path d="M47.1123 17.5C47.1123 16.6716 46.4501 16 45.6333 16C44.8165 16 44.1544 16.6716 44.1544 17.5V19H42.6754C41.8586 19 41.1965 19.6716 41.1965 20.5C41.1965 21.3284 41.8586 22 42.6754 22H44.1544V23.5C44.1544 24.3284 44.8165 25 45.6333 25C46.4501 25 47.1123 24.3284 47.1123 23.5V22H48.5912C49.408 22 50.0702 21.3284 50.0702 20.5C50.0702 19.6716 49.408 19 48.5912 19H47.1123V17.5Z" fill="#0F172A"/>
    <path fill-rule="evenodd" clip-rule="evenodd" d="M15.0684 0C15.8852 0 16.5474 0.671573 16.5474 1.5V5.04871C17.9058 5 19.5177 5 21.4772 5H31.3368C32.8425 5 34.1429 5 35.2807 5.0221V1.5C35.2807 0.671573 35.9429 0 36.7597 0C37.5765 0 38.2386 0.671573 38.2386 1.5V5.17564C39.6706 5.32276 40.7674 5.59312 41.7288 6.08993C43.584 7.04867 45.0923 8.57847 46.0377 10.4601C46.1361 10.6561 46.2255 10.8576 46.3068 11.0664C51.161 11.3874 55 15.4738 55 20.4677C55 25.182 51.5789 29.0876 47.1123 29.7802V31C47.1123 36.6005 47.1123 39.4008 46.0377 41.5399C45.0923 43.4215 43.584 44.9513 41.7288 45.9101C39.6197 47 36.8587 47 31.3369 47H21.4772C15.9553 47 13.1943 47 11.0852 45.9101C9.67088 45.1791 8.29864 43.8575 7.38328 42.5599H8.0253C8.2082 42.5599 8.38484 42.5631 8.55684 42.5661L8.55723 42.5662C9.39133 42.5811 10.1161 42.5941 10.9144 42.235C11.2655 42.4381 11.4595 42.5879 11.6417 42.7287C11.8483 42.8883 12.0399 43.0363 12.4281 43.237C12.9961 43.5306 13.7811 43.7526 15.2423 43.8737C16.738 43.9977 18.6674 44 21.4772 44H31.3369C34.1467 44 36.0761 43.9977 37.5718 43.8737C39.033 43.7526 39.8179 43.5306 40.3859 43.237C41.6847 42.5659 42.7404 41.4951 43.4021 40.1779C43.6916 39.6018 43.9105 38.8057 44.0299 37.3237C44.1521 35.8067 44.1544 33.8498 44.1544 31V29.7617C39.744 29.0205 36.3813 25.1416 36.3813 20.4677C36.3813 16.1487 39.2529 12.5084 43.1692 11.3958C42.5047 10.2737 41.5415 9.36011 40.3859 8.76295C39.9111 8.51757 39.2848 8.32217 38.2386 8.19392V10.5C38.2386 11.3284 37.5765 12 36.7597 12C35.9429 12 35.2807 11.3284 35.2807 10.5V8.0226C34.1867 8.00072 32.8976 8 31.3368 8H21.4772C19.4207 8 17.8358 8.00125 16.5474 8.05052V10.5C16.5474 11.3284 15.8852 12 15.0684 12C14.2516 12 13.5895 11.3284 13.5895 10.5V8.35926C13.0946 8.47058 12.7306 8.60662 12.4281 8.76295C11.2639 9.3646 10.2948 10.2875 9.62988 11.4211C8.86336 11.1483 8.03913 11 7.18072 11C6.95865 11 6.73887 11.0099 6.52178 11.0294C6.59913 10.8338 6.68377 10.6445 6.7764 10.4601C7.72169 8.57847 9.23001 7.04867 11.0852 6.08993C11.8134 5.71365 12.6192 5.46727 13.5895 5.30596V1.5C13.5895 0.671573 14.2516 0 15.0684 0ZM38.8157 20.5C38.8157 16.6776 41.8702 13.5829 45.6333 13.5829C49.3965 13.5829 52.451 16.6776 52.451 20.5C52.451 24.3224 49.3965 27.4171 45.6333 27.4171C41.8702 27.4171 38.8157 24.3224 38.8157 20.5Z" fill="#0F172A"/>
    <path fill-rule="evenodd" clip-rule="evenodd" d="M8.65967 30.3226H9.11673C12.0006 30.3226 14.3385 32.6887 14.3385 35.6074C14.3385 38.5261 12.0006 40.8922 9.11673 40.8922H5.22179C2.33788 40.8922 0 38.5261 0 35.6074C0 32.6887 2.33788 30.3226 5.22179 30.3226H5.70178V25.8261C2.87531 25.1489 0.771957 22.5736 0.771957 19.5C0.771957 15.9102 3.64126 13 7.18073 13C10.7202 13 13.5895 15.9102 13.5895 19.5C13.5895 22.5736 11.4861 25.1489 8.65967 25.8261V30.3226ZM5.2279 30.5392H5.22179C2.45607 30.5392 0.214008 32.8083 0.214008 35.6074C0.214008 35.6098 0.21401 35.6123 0.214013 35.6147C0.217943 32.8131 2.45908 30.5392 5.2279 30.5392ZM5.70178 32.7051H5.2279C3.6429 32.7051 2.35409 34.0089 2.35409 35.6221C2.35409 37.2354 3.6429 38.5392 5.2279 38.5392H9.17176C10.7568 38.5392 12.0456 37.2354 12.0456 35.6221C12.0456 34.0089 10.7568 32.7051 9.17176 32.7051H8.65967V35.5C8.65967 36.3284 7.99753 37 7.18073 37C6.36393 37 5.70178 36.3284 5.70178 35.5V32.7051Z" fill="#0F172A"/>
    <path d="M33.8018 19H19.0123C18.1955 19 17.5334 19.6716 17.5334 20.5C17.5334 21.3284 18.1955 22 19.0123 22H33.8018C34.6186 22 35.2807 21.3284 35.2807 20.5C35.2807 19.6716 34.6186 19 33.8018 19Z" fill="#0F172A"/>
    <path d="M19.0123 25H33.8018C34.6186 25 35.2807 25.6716 35.2807 26.5C35.2807 27.3284 34.6186 28 33.8018 28H19.0123C18.1955 28 17.5334 27.3284 17.5334 26.5C17.5334 25.6716 18.1955 25 19.0123 25Z" fill="#0F172A"/>
    <path d="M33.8018 31H19.0123C18.1955 31 17.5334 31.6716 17.5334 32.5C17.5334 33.3284 18.1955 34 19.0123 34H33.8018C34.6186 34 35.2807 33.3284 35.2807 32.5C35.2807 31.6716 34.6186 31 33.8018 31Z" fill="#0F172A"/>
    <path d="M66.584 32V15.2H77.384V18.08H69.752V22.088H76.712V24.968H69.752V29.12H77.528V32H66.584ZM81.7451 32L77.9531 20.096H81.1691L83.9291 29.792H84.3611L87.1211 20.096H90.3371L86.5451 32H81.7451ZM96.7499 32.336C95.5659 32.336 94.5179 32.088 93.6059 31.592C92.7099 31.08 92.0059 30.368 91.4939 29.456C90.9979 28.528 90.7499 27.44 90.7499 26.192V25.904C90.7499 24.656 90.9979 23.576 91.4939 22.664C91.9899 21.736 92.6859 21.024 93.5819 20.528C94.4779 20.016 95.5179 19.76 96.7019 19.76C97.8699 19.76 98.8859 20.024 99.7499 20.552C100.614 21.064 101.286 21.784 101.766 22.712C102.246 23.624 102.486 24.688 102.486 25.904V26.936H93.8219C93.8539 27.752 94.1579 28.416 94.7339 28.928C95.3099 29.44 96.0139 29.696 96.8459 29.696C97.6939 29.696 98.3179 29.512 98.7179 29.144C99.1179 28.776 99.4219 28.368 99.6299 27.92L102.102 29.216C101.878 29.632 101.55 30.088 101.118 30.584C100.702 31.064 100.142 31.48 99.4379 31.832C98.7339 32.168 97.8379 32.336 96.7499 32.336ZM93.8459 24.68H99.4139C99.3499 23.992 99.0699 23.44 98.5739 23.024C98.0939 22.608 97.4619 22.4 96.6779 22.4C95.8619 22.4 95.2139 22.608 94.7339 23.024C94.2539 23.44 93.9579 23.992 93.8459 24.68ZM104.458 32V20.096H107.434V21.656H107.866C108.058 21.24 108.418 20.848 108.946 20.48C109.474 20.096 110.274 19.904 111.346 19.904C112.274 19.904 113.082 20.12 113.77 20.552C114.474 20.968 115.018 21.552 115.402 22.304C115.786 23.04 115.978 23.904 115.978 24.896V32H112.954V25.136C112.954 24.24 112.73 23.568 112.282 23.12C111.85 22.672 111.226 22.448 110.41 22.448C109.482 22.448 108.762 22.76 108.25 23.384C107.738 23.992 107.482 24.848 107.482 25.952V32H104.458ZM122.758 32C121.974 32 121.334 31.76 120.838 31.28C120.358 30.784 120.118 30.128 120.118 29.312V22.592H117.142V20.096H120.118V16.4H123.142V20.096H126.406V22.592H123.142V28.784C123.142 29.264 123.366 29.504 123.814 29.504H126.118V32H122.758ZM133.666 32.336C132.482 32.336 131.418 32.096 130.474 31.616C129.53 31.136 128.786 30.44 128.242 29.528C127.698 28.616 127.426 27.52 127.426 26.24V25.856C127.426 24.576 127.698 23.48 128.242 22.568C128.786 21.656 129.53 20.96 130.474 20.48C131.418 20 132.482 19.76 133.666 19.76C134.85 19.76 135.914 20 136.858 20.48C137.802 20.96 138.546 21.656 139.09 22.568C139.634 23.48 139.906 24.576 139.906 25.856V26.24C139.906 27.52 139.634 28.616 139.09 29.528C138.546 30.44 137.802 31.136 136.858 31.616C135.914 32.096 134.85 32.336 133.666 32.336ZM133.666 29.648C134.594 29.648 135.362 29.352 135.97 28.76C136.578 28.152 136.882 27.288 136.882 26.168V25.928C136.882 24.808 136.578 23.952 135.97 23.36C135.378 22.752 134.61 22.448 133.666 22.448C132.738 22.448 131.97 22.752 131.362 23.36C130.754 23.952 130.45 24.808 130.45 25.928V26.168C130.45 27.288 130.754 28.152 131.362 28.76C131.97 29.352 132.738 29.648 133.666 29.648ZM142.89 32L141.21 20.096H144.21L145.266 29.96H145.698L147.234 20.096H152.082L153.618 29.96H154.05L155.106 20.096H158.106L156.426 32H151.41L149.874 22.136H149.442L147.906 32H142.89ZM160.031 32V20.096H163.007V21.656H163.439C163.631 21.24 163.991 20.848 164.519 20.48C165.047 20.096 165.847 19.904 166.919 19.904C167.847 19.904 168.655 20.12 169.343 20.552C170.047 20.968 170.591 21.552 170.975 22.304C171.359 23.04 171.551 23.904 171.551 24.896V32H168.527V25.136C168.527 24.24 168.303 23.568 167.855 23.12C167.423 22.672 166.799 22.448 165.983 22.448C165.055 22.448 164.335 22.76 163.823 23.384C163.311 23.992 163.055 24.848 163.055 25.952V32H160.031ZM174.1 32V20.096H177.124V32H174.1ZM175.612 18.704C175.068 18.704 174.604 18.528 174.22 18.176C173.852 17.824 173.668 17.36 173.668 16.784C173.668 16.208 173.852 15.744 174.22 15.392C174.604 15.04 175.068 14.864 175.612 14.864C176.172 14.864 176.636 15.04 177.004 15.392C177.372 15.744 177.556 16.208 177.556 16.784C177.556 17.36 177.372 17.824 177.004 18.176C176.636 18.528 176.172 18.704 175.612 18.704ZM179.755 32V15.2H182.779V24.488H183.211L187.147 20.096H191.083L185.587 25.856L191.275 32H187.387L183.211 27.272H182.779V32H179.755Z" fill="#0F172A"/>
</svg>