<svg width="191" height="46" viewBox="0 0 191 46" fill="none" xmlns="http://www.w3.org/2000/svg">
    <path d="M46.2557 17.1277C46.2557 16.3169 45.6056 15.6596 44.8036 15.6596C44.0017 15.6596 43.3516 16.3169 43.3516 17.1277V18.5957H41.8995C41.0976 18.5957 40.4475 19.253 40.4475 20.0638C40.4475 20.8746 41.0976 21.5319 41.8995 21.5319H43.3516V23C43.3516 23.8108 44.0017 24.4681 44.8036 24.4681C45.6056 24.4681 46.2557 23.8108 46.2557 23V21.5319H47.7078C48.5097 21.5319 49.1598 20.8746 49.1598 20.0638C49.1598 19.253 48.5097 18.5957 47.7078 18.5957H46.2557V17.1277Z" fill="#F0F0F0"/>
    <path fill-rule="evenodd" clip-rule="evenodd" d="M14.7945 0C15.5964 0 16.2465 0.657284 16.2465 1.46809V4.94129C17.5802 4.89362 19.1628 4.89362 21.0867 4.89362H30.7671C32.2453 4.89362 33.5221 4.89362 34.6393 4.91524V1.46809C34.6393 0.657284 35.2894 0 36.0913 0C36.8933 0 37.5434 0.657284 37.5434 1.46809V5.06552C38.9493 5.20951 40.0262 5.47411 40.9701 5.96036C42.7916 6.8987 44.2725 8.39595 45.2006 10.2375C45.2973 10.4294 45.3851 10.6266 45.4648 10.8309C50.2308 11.1451 54 15.1446 54 20.0323C54 24.6462 50.6411 28.4687 46.2557 29.1466V30.3404C46.2557 35.8217 46.2557 38.5625 45.2006 40.6561C44.2725 42.4976 42.7916 43.9949 40.9701 44.9333C38.8994 46 36.1886 46 30.7671 46H21.0867C15.6652 46 12.9544 46 10.8837 44.9333C9.49504 44.2178 8.14776 42.9244 7.24904 41.6544H7.87939C8.05896 41.6544 8.23239 41.6575 8.40126 41.6605L8.40165 41.6605C9.22058 41.6751 9.93218 41.6878 10.716 41.3364C11.0607 41.5351 11.2511 41.6818 11.4301 41.8196C11.6329 41.9758 11.821 42.1206 12.2022 42.3171C12.7598 42.6044 13.5305 42.8217 14.9651 42.9402C16.4336 43.0616 18.328 43.0638 21.0867 43.0638H30.7671C33.5258 43.0638 35.4202 43.0616 36.8887 42.9402C38.3233 42.8217 39.094 42.6044 39.6516 42.3171C40.9267 41.6602 41.9633 40.6122 42.613 39.323C42.8972 38.7592 43.1121 37.98 43.2293 36.5296C43.3494 35.0449 43.3516 33.1296 43.3516 30.3404V29.1285C39.0214 28.4031 35.7198 24.6066 35.7198 20.0323C35.7198 15.8051 38.5392 12.2423 42.3843 11.1533C41.7319 10.0551 40.7862 9.16095 39.6516 8.57651C39.1855 8.33635 38.5705 8.1451 37.5434 8.01958V10.2766C37.5434 11.0874 36.8933 11.7447 36.0913 11.7447C35.2894 11.7447 34.6393 11.0874 34.6393 10.2766V7.85191C33.5651 7.83049 32.2994 7.82979 30.7671 7.82979H21.0867C19.0676 7.82979 17.5115 7.83101 16.2465 7.87923V10.2766C16.2465 11.0874 15.5964 11.7447 14.7945 11.7447C13.9925 11.7447 13.3424 11.0874 13.3424 10.2766V8.1814C12.8565 8.29035 12.4991 8.4235 12.2022 8.57651C11.0591 9.16535 10.1076 10.0686 9.45479 11.1781C8.70221 10.9111 7.89296 10.766 7.05016 10.766C6.83213 10.766 6.61634 10.7756 6.4032 10.7947C6.47914 10.6033 6.56225 10.418 6.6532 10.2375C7.58129 8.39595 9.0622 6.8987 10.8837 5.96036C11.5986 5.59208 12.3897 5.35095 13.3424 5.19306V1.46809C13.3424 0.657284 13.9925 0 14.7945 0ZM38.1099 20.0638C38.1099 16.3228 41.1089 13.294 44.8036 13.294C48.4984 13.294 51.4974 16.3228 51.4974 20.0638C51.4974 23.8049 48.4984 26.8337 44.8036 26.8337C41.1089 26.8337 38.1099 23.8049 38.1099 20.0638Z" fill="#F0F0F0"/>
    <path fill-rule="evenodd" clip-rule="evenodd" d="M8.50222 29.6774H8.95097C11.7825 29.6774 14.0778 31.9932 14.0778 34.8498C14.0778 37.7064 11.7825 40.0221 8.95097 40.0221H5.12685C2.29537 40.0221 0 37.7064 0 34.8498C0 31.9932 2.29537 29.6774 5.12685 29.6774H5.59811V25.2766C2.82304 24.6138 0.757921 22.0933 0.757921 19.0851C0.757921 15.5716 3.57506 12.7234 7.05017 12.7234C10.5253 12.7234 13.3424 15.5716 13.3424 19.0851C13.3424 22.0933 11.2773 24.6138 8.50222 25.2766V29.6774ZM5.13285 29.8894H5.12685C2.41141 29.8894 0.210117 32.1102 0.210117 34.8498C0.210117 34.8522 0.210118 34.8546 0.210122 34.857C0.21398 32.1149 2.41437 29.8894 5.13285 29.8894ZM5.59811 32.0092H5.13285C3.57666 32.0092 2.31128 33.2853 2.31128 34.8642C2.31128 36.4431 3.57666 37.7192 5.13285 37.7192H9.005C10.5612 37.7192 11.8266 36.4431 11.8266 34.8642C11.8266 33.2853 10.5612 32.0092 9.005 32.0092H8.50222V34.7447C8.50222 35.5555 7.85212 36.2128 7.05017 36.2128C6.24822 36.2128 5.59811 35.5555 5.59811 34.7447V32.0092Z" fill="#F0F0F0"/>
    <path d="M33.1872 18.5957H18.6666C17.8647 18.5957 17.2146 19.253 17.2146 20.0638C17.2146 20.8746 17.8647 21.5319 18.6666 21.5319H33.1872C33.9891 21.5319 34.6392 20.8746 34.6392 20.0638C34.6392 19.253 33.9891 18.5957 33.1872 18.5957Z" fill="#F0F0F0"/>
    <path d="M18.6666 24.4681H33.1872C33.9891 24.4681 34.6392 25.1254 34.6392 25.9362C34.6392 26.747 33.9891 27.4043 33.1872 27.4043H18.6666C17.8647 27.4043 17.2146 26.747 17.2146 25.9362C17.2146 25.1254 17.8647 24.4681 18.6666 24.4681Z" fill="#F0F0F0"/>
    <path d="M33.1872 30.3404H18.6666C17.8647 30.3404 17.2146 30.9977 17.2146 31.8085C17.2146 32.6193 17.8647 33.2766 18.6666 33.2766H33.1872C33.9891 33.2766 34.6392 32.6193 34.6392 31.8085C34.6392 30.9977 33.9891 30.3404 33.1872 30.3404Z" fill="#F0F0F0"/>
    <path d="M65.584 31.5V14.7H76.384V17.58H68.752V21.588H75.712V24.468H68.752V28.62H76.528V31.5H65.584ZM80.7451 31.5L76.9531 19.596H80.1691L82.9291 29.292H83.3611L86.1211 19.596H89.3371L85.5451 31.5H80.7451ZM95.7499 31.836C94.5659 31.836 93.5179 31.588 92.6059 31.092C91.7099 30.58 91.0059 29.868 90.4939 28.956C89.9979 28.028 89.7499 26.94 89.7499 25.692V25.404C89.7499 24.156 89.9979 23.076 90.4939 22.164C90.9899 21.236 91.6859 20.524 92.5819 20.028C93.4779 19.516 94.5179 19.26 95.7019 19.26C96.8699 19.26 97.8859 19.524 98.7499 20.052C99.6139 20.564 100.286 21.284 100.766 22.212C101.246 23.124 101.486 24.188 101.486 25.404V26.436H92.8219C92.8539 27.252 93.1579 27.916 93.7339 28.428C94.3099 28.94 95.0139 29.196 95.8459 29.196C96.6939 29.196 97.3179 29.012 97.7179 28.644C98.1179 28.276 98.4219 27.868 98.6299 27.42L101.102 28.716C100.878 29.132 100.55 29.588 100.118 30.084C99.7019 30.564 99.1419 30.98 98.4379 31.332C97.7339 31.668 96.8379 31.836 95.7499 31.836ZM92.8459 24.18H98.4139C98.3499 23.492 98.0699 22.94 97.5739 22.524C97.0939 22.108 96.4619 21.9 95.6779 21.9C94.8619 21.9 94.2139 22.108 93.7339 22.524C93.2539 22.94 92.9579 23.492 92.8459 24.18ZM103.458 31.5V19.596H106.434V21.156H106.866C107.058 20.74 107.418 20.348 107.946 19.98C108.474 19.596 109.274 19.404 110.346 19.404C111.274 19.404 112.082 19.62 112.77 20.052C113.474 20.468 114.018 21.052 114.402 21.804C114.786 22.54 114.978 23.404 114.978 24.396V31.5H111.954V24.636C111.954 23.74 111.73 23.068 111.282 22.62C110.85 22.172 110.226 21.948 109.41 21.948C108.482 21.948 107.762 22.26 107.25 22.884C106.738 23.492 106.482 24.348 106.482 25.452V31.5H103.458ZM121.758 31.5C120.974 31.5 120.334 31.26 119.838 30.78C119.358 30.284 119.118 29.628 119.118 28.812V22.092H116.142V19.596H119.118V15.9H122.142V19.596H125.406V22.092H122.142V28.284C122.142 28.764 122.366 29.004 122.814 29.004H125.118V31.5H121.758ZM132.666 31.836C131.482 31.836 130.418 31.596 129.474 31.116C128.53 30.636 127.786 29.94 127.242 29.028C126.698 28.116 126.426 27.02 126.426 25.74V25.356C126.426 24.076 126.698 22.98 127.242 22.068C127.786 21.156 128.53 20.46 129.474 19.98C130.418 19.5 131.482 19.26 132.666 19.26C133.85 19.26 134.914 19.5 135.858 19.98C136.802 20.46 137.546 21.156 138.09 22.068C138.634 22.98 138.906 24.076 138.906 25.356V25.74C138.906 27.02 138.634 28.116 138.09 29.028C137.546 29.94 136.802 30.636 135.858 31.116C134.914 31.596 133.85 31.836 132.666 31.836ZM132.666 29.148C133.594 29.148 134.362 28.852 134.97 28.26C135.578 27.652 135.882 26.788 135.882 25.668V25.428C135.882 24.308 135.578 23.452 134.97 22.86C134.378 22.252 133.61 21.948 132.666 21.948C131.738 21.948 130.97 22.252 130.362 22.86C129.754 23.452 129.45 24.308 129.45 25.428V25.668C129.45 26.788 129.754 27.652 130.362 28.26C130.97 28.852 131.738 29.148 132.666 29.148ZM141.89 31.5L140.21 19.596H143.21L144.266 29.46H144.698L146.234 19.596H151.082L152.618 29.46H153.05L154.106 19.596H157.106L155.426 31.5H150.41L148.874 21.636H148.442L146.906 31.5H141.89ZM159.031 31.5V19.596H162.007V21.156H162.439C162.631 20.74 162.991 20.348 163.519 19.98C164.047 19.596 164.847 19.404 165.919 19.404C166.847 19.404 167.655 19.62 168.343 20.052C169.047 20.468 169.591 21.052 169.975 21.804C170.359 22.54 170.551 23.404 170.551 24.396V31.5H167.527V24.636C167.527 23.74 167.303 23.068 166.855 22.62C166.423 22.172 165.799 21.948 164.983 21.948C164.055 21.948 163.335 22.26 162.823 22.884C162.311 23.492 162.055 24.348 162.055 25.452V31.5H159.031ZM173.1 31.5V19.596H176.124V31.5H173.1ZM174.612 18.204C174.068 18.204 173.604 18.028 173.22 17.676C172.852 17.324 172.668 16.86 172.668 16.284C172.668 15.708 172.852 15.244 173.22 14.892C173.604 14.54 174.068 14.364 174.612 14.364C175.172 14.364 175.636 14.54 176.004 14.892C176.372 15.244 176.556 15.708 176.556 16.284C176.556 16.86 176.372 17.324 176.004 17.676C175.636 18.028 175.172 18.204 174.612 18.204ZM178.755 31.5V14.7H181.779V23.988H182.211L186.147 19.596H190.083L184.587 25.356L190.275 31.5H186.387L182.211 26.772H181.779V31.5H178.755Z" fill="#F0F0F0"/>
</svg>