<svg width="257" height="217" viewBox="0 0 257 217" fill="none" xmlns="http://www.w3.org/2000/svg">
<path d="M220.143 80.7979C220.143 76.973 217.049 73.8723 213.232 73.8723C209.415 73.8723 206.321 76.973 206.321 80.7979V87.7234H199.411C195.594 87.7234 192.5 90.8241 192.5 94.6489C192.5 98.4738 195.594 101.574 199.411 101.574H206.321V108.5C206.321 112.325 209.415 115.426 213.232 115.426C217.049 115.426 220.143 112.325 220.143 108.5V101.574H227.054C230.87 101.574 233.964 98.4738 233.964 94.6489C233.964 90.8241 230.87 87.7234 227.054 87.7234H220.143V80.7979Z" fill="#0F172A"/>
<path fill-rule="evenodd" clip-rule="evenodd" d="M70.4107 0C74.2274 0 77.3214 3.10067 77.3214 6.92553V23.31C83.669 23.0851 91.2007 23.0851 100.357 23.0851H146.429C153.464 23.0851 159.54 23.0851 164.857 23.1871V6.92553C164.857 3.10067 167.951 0 171.768 0C175.585 0 178.679 3.10067 178.679 6.92553V23.896C185.37 24.5753 190.495 25.8235 194.987 28.1173C203.656 32.5439 210.704 39.607 215.121 48.2945C215.581 49.1994 215.999 50.13 216.379 51.0938C239.061 52.5758 257 71.443 257 94.5C257 116.266 241.014 134.298 220.143 137.496V143.128C220.143 168.985 220.143 181.914 215.122 191.791C210.704 200.478 203.656 207.541 194.987 211.968C185.132 217 172.231 217 146.429 217H100.357C74.5548 217 61.6535 217 51.7983 211.968C45.1894 208.593 38.7773 202.491 34.5001 196.5H37.5001C38.3547 196.5 39.1801 196.515 39.9838 196.529L39.9856 196.529C43.8831 196.598 47.2698 196.658 51.0001 195C52.6407 195.938 53.547 196.629 54.3987 197.279C55.3639 198.016 56.259 198.7 58.0732 199.626C60.7274 200.982 64.3952 202.007 71.223 202.566C78.212 203.138 87.2277 203.149 100.357 203.149H146.429C159.558 203.149 168.574 203.138 175.563 202.566C182.391 202.007 186.058 200.982 188.712 199.626C194.781 196.528 199.714 191.584 202.806 185.502C204.159 182.842 205.182 179.167 205.74 172.324C206.311 165.32 206.321 156.285 206.321 143.128V137.41C185.713 133.988 170 116.079 170 94.5C170 74.5589 183.418 57.7517 201.718 52.6145C198.613 47.434 194.112 43.2158 188.712 40.4587C186.494 39.3258 183.567 38.4236 178.679 37.8315V48.4787C178.679 52.3036 175.585 55.4043 171.768 55.4043C167.951 55.4043 164.857 52.3036 164.857 48.4787V37.0405C159.745 36.9395 153.721 36.9362 146.429 36.9362H100.357C90.7477 36.9362 83.3419 36.9419 77.3214 37.1694V48.4787C77.3214 52.3036 74.2274 55.4043 70.4107 55.4043C66.594 55.4043 63.5 52.3036 63.5 48.4787V38.5949C61.1875 39.1088 59.4866 39.737 58.0732 40.4587C52.6331 43.2366 48.1047 47.4976 44.9978 52.7315C41.4161 51.4719 37.5647 50.7872 33.5535 50.7872C32.5159 50.7872 31.4889 50.833 30.4745 50.923C30.8359 50.0199 31.2314 49.1459 31.6643 48.2945C36.0813 39.607 43.1293 32.5439 51.7983 28.1173C55.2006 26.38 58.966 25.2425 63.5 24.4977V6.92553C63.5 3.10067 66.594 0 70.4107 0ZM181.375 94.6489C181.375 77.001 195.648 62.7128 213.232 62.7128C230.816 62.7128 245.089 77.001 245.089 94.6489C245.089 112.297 230.816 126.585 213.232 126.585C195.648 126.585 181.375 112.297 181.375 94.6489Z" fill="#0F172A"/>
<path fill-rule="evenodd" clip-rule="evenodd" d="M40.4643 140H42.6C56.0757 140 67 150.924 67 164.4C67 177.876 56.0757 188.8 42.6 188.8H24.4C10.9243 188.8 0 177.876 0 164.4C0 150.924 10.9243 140 24.4 140H26.6429V119.24C13.4356 116.113 3.60714 104.223 3.60714 90.0319C3.60714 73.4575 17.0146 60.0213 33.5536 60.0213C50.0925 60.0213 63.5 73.4575 63.5 90.0319C63.5 104.223 53.6716 116.113 40.4643 119.24V140ZM24.4286 141H24.4C11.4765 141 1 151.477 1 164.4C1 164.411 1.00001 164.423 1.00002 164.434C1.01839 151.499 11.4906 141 24.4286 141ZM26.6429 151H24.4286C17.0223 151 11 157.02 11 164.468C11 171.916 17.0223 177.936 24.4286 177.936H42.8571C50.2634 177.936 56.2857 171.916 56.2857 164.468C56.2857 157.02 50.2634 151 42.8571 151H40.4643V163.904C40.4643 167.729 37.3703 170.83 33.5536 170.83C29.7369 170.83 26.6429 167.729 26.6429 163.904V151Z" fill="#0F172A"/>
<path d="M157.946 87.7234H88.8393C85.0226 87.7234 81.9286 90.8241 81.9286 94.6489C81.9286 98.4738 85.0226 101.574 88.8393 101.574H157.946C161.763 101.574 164.857 98.4738 164.857 94.6489C164.857 90.8241 161.763 87.7234 157.946 87.7234Z" fill="#0F172A"/>
<path d="M88.8393 115.426H157.946C161.763 115.426 164.857 118.526 164.857 122.351C164.857 126.176 161.763 129.277 157.946 129.277H88.8393C85.0226 129.277 81.9286 126.176 81.9286 122.351C81.9286 118.526 85.0226 115.426 88.8393 115.426Z" fill="#0F172A"/>
<path d="M157.946 143.128H88.8393C85.0226 143.128 81.9286 146.228 81.9286 150.053C81.9286 153.878 85.0226 156.979 88.8393 156.979H157.946C161.763 156.979 164.857 153.878 164.857 150.053C164.857 146.228 161.763 143.128 157.946 143.128Z" fill="#0F172A"/>
</svg>
